<?xml version="1.0" standalone="no"?>
<!DOCTYPE svg PUBLIC "-//W3C//DTD SVG 20010904//EN"
 "http://www.w3.org/TR/2001/REC-SVG-20010904/DTD/svg10.dtd">
<svg version="1.0" xmlns="http://www.w3.org/2000/svg"
 width="2048.000000pt" height="2048.000000pt" viewBox="0 0 2048.000000 2048.000000"
 preserveAspectRatio="xMidYMid meet">

<g transform="translate(0.000000,2048.000000) scale(0.100000,-0.100000)"
fill="#000000" stroke="none">
<path d="M10295 19101 c-71 -55 -226 -198 -253 -235 -33 -45 -57 -103 -91
-222 -62 -217 -82 -402 -62 -586 14 -124 61 -304 97 -365 13 -23 24 -44 24
-48 0 -3 -19 7 -42 23 -124 85 -378 173 -583 202 -91 13 -261 13 -383 0 -448
-48 -670 -134 -859 -334 l-79 -83 -109 47 c-174 74 -291 138 -369 204 -159
134 -330 272 -360 290 -60 37 138 -154 241 -231 56 -42 101 -79 99 -80 -2 -2
-84 36 -182 83 -260 125 -435 205 -643 296 -101 43 -267 118 -368 164 -246
113 -592 258 -638 267 -13 3 -32 -188 -46 -478 -13 -290 -6 -721 17 -960 8
-88 19 -221 24 -295 8 -137 47 -470 76 -660 10 -60 14 -130 11 -165 -3 -34 0
-93 8 -135 8 -41 19 -147 25 -234 6 -88 22 -243 36 -345 14 -102 23 -198 20
-214 -7 -33 -597 -849 -825 -1141 -328 -418 -501 -615 -686 -774 -170 -146
-281 -214 -455 -278 -36 -13 -54 -22 -40 -20 14 3 97 14 185 26 209 27 356 60
540 121 138 46 392 161 493 224 90 56 40 -9 -152 -195 -145 -142 -439 -449
-396 -415 14 11 113 106 220 211 203 200 289 278 297 270 3 -2 -45 -89 -105
-193 -60 -103 -155 -269 -210 -368 -123 -221 -359 -619 -416 -700 -91 -129
-76 -114 111 106 67 79 159 187 203 239 93 110 224 299 335 485 128 215 167
276 172 272 2 -3 -2 -18 -10 -34 -8 -15 -13 -33 -10 -39 6 -16 -196 -618 -271
-809 -134 -339 -301 -638 -463 -830 -66 -78 -300 -295 -380 -353 -52 -37 -69
-60 -35 -47 9 3 78 15 152 25 233 33 270 40 470 92 107 27 210 53 228 58 20 5
32 4 32 -2 0 -7 4 -7 13 -1 15 13 47 13 47 0 0 -13 -235 -487 -282 -569 -21
-36 -38 -69 -38 -73 0 -4 72 62 161 147 88 84 167 157 175 161 46 26 -15 -94
-106 -208 -53 -66 -304 -284 -397 -344 -29 -19 -51 -36 -49 -39 10 -9 174 98
276 181 78 62 114 86 124 80 11 -6 -10 -45 -102 -180 -64 -95 -128 -187 -141
-205 -13 -18 23 12 80 68 150 145 264 226 484 343 55 30 115 65 133 78 61 46
71 63 -188 -339 -135 -210 -257 -378 -328 -452 l-57 -59 63 48 c75 56 145 91
268 135 144 51 447 141 453 134 13 -12 -144 -138 -325 -260 -71 -48 -121 -84
-111 -81 10 4 57 14 105 23 219 42 346 82 535 168 31 14 57 21 57 16 0 -6 -6
-10 -12 -10 -9 0 -8 -4 2 -10 12 -8 12 -10 1 -10 -11 0 -11 -3 0 -16 10 -13
10 -17 -2 -25 -8 -5 -11 -9 -7 -9 4 0 -21 -57 -57 -127 -81 -162 -205 -306
-308 -359 -57 -30 -18 -25 69 9 111 43 488 212 531 239 l32 19 -19 -57 c-23
-66 -80 -350 -79 -391 l1 -28 8 25 c5 14 26 79 47 145 l38 120 2 -110 c2 -109
42 -586 49 -594 2 -2 6 -2 9 1 9 8 112 261 148 360 29 81 47 109 47 74 0 -35
78 -200 190 -401 176 -316 256 -428 418 -581 55 -51 83 -85 78 -92 -16 -26
-296 -229 -538 -390 -248 -165 -285 -190 -497 -326 -126 -82 -305 -183 -471
-266 -503 -252 -726 -413 -934 -674 -103 -128 -302 -426 -343 -511 -55 -116
-58 -156 -39 -447 31 -469 62 -573 264 -878 71 -108 128 -169 220 -237 40 -30
70 -58 67 -64 -9 -13 -49 -11 -64 3 -10 11 -11 10 -6 -4 4 -10 3 -18 -3 -18
-5 0 -15 -13 -22 -29 -12 -30 -103 -101 -401 -315 -75 -53 -177 -133 -228
-177 -63 -55 -97 -79 -108 -74 -23 8 185 -188 308 -291 57 -48 133 -113 169
-144 237 -207 665 -517 1068 -774 491 -314 1116 -630 1626 -821 304 -114 791
-264 1089 -335 460 -109 1021 -199 1488 -237 271 -22 1141 -25 1339 -5 483 50
828 98 1102 153 603 121 1191 302 1738 536 213 91 655 306 805 393 641 368
1096 680 1593 1092 111 93 202 171 202 174 0 3 -6 4 -13 2 -7 -2 -47 26 -88
63 -41 36 -105 88 -144 116 -115 82 -624 416 -710 465 -122 70 -269 164 -272
175 -2 6 11 16 28 23 50 21 216 135 309 213 140 118 229 216 314 349 44 69 40
77 -5 12 -54 -78 -160 -195 -171 -188 -6 4 -8 3 -5 -3 3 -5 -3 -17 -14 -26
-13 -12 -19 -13 -20 -4 0 6 -4 2 -9 -11 -5 -12 -14 -22 -20 -22 -6 0 -8 -6 -4
-13 4 -6 3 -9 -1 -4 -5 4 -20 -3 -34 -15 -14 -13 -3 2 23 32 27 30 53 54 57
53 5 -2 8 0 6 5 -1 4 20 33 47 64 134 155 241 362 302 581 12 43 22 61 40 69
21 10 24 18 24 69 0 164 -115 344 -310 481 -79 55 -127 81 -140 73 -5 -3 -17
-1 -27 4 -44 25 -106 51 -90 38 15 -13 15 -16 2 -27 -8 -7 -15 -18 -15 -24 0
-6 4 -5 9 3 6 9 11 10 15 2 8 -13 -18 -26 -34 -16 -6 3 -8 10 -5 15 3 5 1 12
-5 15 -6 4 -10 3 -9 -2 4 -20 -2 -27 -12 -13 -9 13 -10 12 -5 -2 3 -10 1 -18
-4 -18 -6 0 -10 6 -10 13 0 8 -4 7 -10 -3 -8 -13 -10 -13 -10 2 0 9 -4 19 -9
22 -5 4 -7 -3 -4 -14 3 -11 1 -20 -5 -20 -6 0 -9 -10 -7 -21 3 -12 1 -18 -3
-15 -4 4 -7 12 -7 17 0 5 -4 8 -10 7 -5 -2 -9 -7 -7 -11 1 -5 -2 -6 -7 -3 -5
4 -8 14 -6 24 2 10 -6 29 -16 43 -11 13 -17 17 -14 8 4 -10 0 -16 -10 -16 -10
0 -14 6 -10 16 3 8 3 12 -1 8 -4 -4 -14 -1 -23 6 -14 10 -14 10 -3 -5 8 -9 11
-22 8 -27 -4 -6 2 -8 14 -6 11 2 22 -1 25 -6 4 -5 11 -6 17 -3 6 4 6 0 -1 -13
-6 -11 -7 -24 -3 -28 4 -5 2 -5 -5 -1 -7 4 -10 13 -7 21 6 14 -12 15 -34 1 -7
-4 -12 -4 -11 1 4 21 -2 24 -18 12 -16 -12 -17 -12 -6 2 7 9 9 20 5 24 -4 5
-1 5 6 1 11 -7 11 -4 0 13 -7 12 -14 17 -16 11 -2 -5 -13 1 -25 13 -12 13 -16
15 -9 6 8 -10 11 -22 8 -28 -4 -6 2 -8 14 -6 17 3 19 1 10 -16 -13 -24 -22
-25 -13 -1 6 15 4 15 -9 4 -14 -11 -16 -10 -13 5 3 19 -12 43 -26 43 -5 0 -9
-5 -9 -11 0 -5 5 -7 12 -3 7 5 8 3 3 -6 -5 -9 -4 -11 3 -6 8 5 10 1 5 -10 -6
-15 -7 -15 -15 0 -8 14 -12 15 -26 4 -9 -7 -14 -9 -10 -4 4 5 3 17 -2 27 -6
11 -6 20 -1 24 5 3 12 -5 14 -17 4 -22 4 -22 6 -2 0 12 -7 28 -16 35 -10 8
-14 9 -10 2 12 -19 -8 -23 -32 -7 -12 8 -18 21 -15 27 5 8 2 8 -7 -1 -11 -10
-17 -8 -34 11 -11 13 -16 17 -12 10 5 -6 6 -17 2 -23 -4 -6 -1 -19 7 -29 7 -9
1 -5 -13 11 -18 20 -28 25 -36 17 -8 -8 -11 -3 -9 19 1 17 -1 29 -5 26 -4 -2
-9 1 -11 8 -6 16 -41 20 -50 5 -5 -8 -8 -4 -8 11 0 12 -4 22 -9 22 -6 0 -8
-10 -6 -21 4 -21 4 -21 -15 -4 -11 10 -20 25 -19 34 0 12 3 11 9 -4 7 -15 9
-16 9 -4 1 9 -7 23 -16 30 -11 10 -14 10 -9 2 4 -8 2 -13 -4 -13 -6 0 -9 -4
-6 -8 3 -5 -1 -9 -7 -9 -7 0 -14 10 -15 21 -1 17 1 18 8 6 5 -8 10 -10 10 -4
0 6 -8 19 -19 28 -18 16 -19 16 -16 -14 1 -17 0 -28 -4 -25 -6 7 -7 11 -10 48
-2 21 -3 21 -10 2 -5 -11 -6 -24 -3 -30 3 -5 1 -6 -3 -2 -5 4 -9 20 -10 35 0
15 -6 27 -13 27 -7 0 -17 7 -22 15 -5 8 -10 10 -10 4 0 -6 3 -14 7 -18 11 -10
12 -37 2 -30 -5 3 -8 8 -5 12 5 10 -28 65 -38 62 -5 -1 -13 4 -18 12 -6 9 -8
5 -4 -12 l6 -25 -13 26 c-17 37 -37 59 -54 59 -8 0 -11 -5 -8 -10 4 -6 11 -7
17 -4 7 5 8 2 3 -6 -6 -9 -4 -11 5 -5 9 6 11 4 5 -5 -5 -8 -4 -11 2 -7 5 3 10
-1 10 -9 0 -10 -11 -4 -33 17 -20 20 -31 39 -29 51 4 17 2 18 -12 6 -9 -7 -14
-8 -10 -2 8 14 -21 56 -34 49 -5 -4 -9 2 -9 12 0 14 -2 15 -9 5 -6 -10 -10 -8
-14 8 -4 17 -11 21 -26 17 -22 -5 -52 25 -47 47 2 6 1 7 -2 2 -3 -5 -11 2 -19
15 l-14 24 5 -25 c3 -14 3 -19 0 -12 -3 6 -9 10 -12 8 -4 -2 -8 7 -9 20 -4 46
-6 53 -17 51 -6 -1 -10 8 -10 20 1 13 -3 20 -8 17 -5 -3 -7 -9 -4 -12 3 -3 0
-12 -7 -20 -10 -13 -9 -14 2 -7 10 6 12 4 6 -5 -5 -8 -4 -11 3 -6 17 10 37
-33 22 -48 -8 -8 -9 -6 -4 9 7 17 6 18 -8 7 -11 -9 -18 -10 -23 -2 -4 6 -1 9
6 8 6 -2 13 2 16 9 3 8 -3 11 -16 8 -12 -2 -20 1 -18 8 1 7 -3 11 -10 10 -8
-2 -10 4 -6 15 6 15 3 14 -18 -3 -13 -11 -19 -13 -13 -5 8 11 7 22 -2 40 -12
22 -19 20 -15 -4 1 -5 -4 -4 -12 3 -9 7 -13 21 -9 33 5 21 6 21 13 2 4 -11 8
-13 8 -5 1 8 9 24 19 35 13 16 14 18 1 8 -20 -15 -39 1 -39 34 0 4 -7 1 -15
-6 -13 -11 -15 -10 -12 6 1 11 7 26 12 34 7 12 6 13 -7 3 -20 -17 -31 -4 -16
16 9 11 7 11 -8 -2 -21 -17 -22 -17 -44 15 -12 18 -19 25 -16 16 3 -10 1 -20
-4 -23 -10 -6 -15 10 -10 30 1 6 3 15 4 20 1 6 6 17 11 25 8 13 7 13 -8 1 -9
-7 -15 -17 -12 -21 2 -4 -2 -16 -10 -26 -13 -18 -14 -17 -11 8 1 15 9 35 17
45 12 16 11 16 -9 -1 -26 -23 -29 -11 -4 17 9 11 11 17 4 13 -8 -5 -22 -22
-33 -40 -12 -19 -19 -25 -19 -14 0 9 11 30 24 46 17 19 21 29 11 29 -8 0 -13
-3 -12 -6 1 -3 -7 -18 -17 -33 -18 -28 -15 -65 4 -53 6 4 7 -1 4 -12 -5 -14
-4 -15 4 -4 8 11 11 9 17 -9 6 -18 9 -20 17 -9 6 10 7 6 3 -11 -4 -17 -3 -21
3 -11 8 11 11 9 17 -9 6 -18 9 -20 16 -9 7 12 9 11 9 -1 0 -13 1 -13 10 0 8
11 9 7 5 -15 -4 -23 -3 -25 3 -10 7 16 10 17 14 5 3 -8 3 -4 1 9 -4 21 -2 23
11 12 12 -10 13 -18 5 -33 -9 -16 -8 -19 2 -13 8 6 10 4 4 -5 -6 -9 -4 -11 5
-5 9 6 11 4 5 -5 -6 -9 -4 -11 5 -5 9 6 11 4 5 -5 -6 -9 -4 -11 4 -5 10 6 11
3 2 -14 -14 -25 -23 -28 -14 -3 6 15 5 16 -12 2 -10 -8 -16 -10 -12 -4 3 6 -5
22 -18 34 -14 13 -25 30 -25 37 0 8 -5 11 -10 8 -6 -4 -8 -10 -5 -15 3 -4 -3
-14 -13 -21 -15 -13 -16 -12 -4 3 8 10 9 18 3 22 -6 4 -8 12 -5 20 3 7 -2 13
-11 13 -9 0 -14 -6 -11 -14 3 -8 1 -11 -5 -8 -5 4 -7 16 -3 28 l7 22 -24 -20
c-13 -11 -18 -13 -12 -5 8 10 9 21 3 30 -9 14 -11 13 -14 -9 0 -5 -4 -12 -8
-16 -3 -4 -5 0 -4 9 1 8 5 19 9 22 16 16 6 26 -10 11 -17 -15 -18 -13 -19 26
-2 34 0 37 6 17 7 -21 8 -22 9 -5 1 11 8 31 17 43 9 13 13 26 10 29 -3 4 -6 1
-6 -6 0 -7 -5 -9 -10 -6 -8 5 -8 11 0 20 7 9 6 16 -7 26 -16 13 -17 12 -5 -3
9 -11 10 -18 2 -23 -7 -5 -8 -11 -1 -19 6 -7 6 -17 1 -26 -10 -15 -10 -14 -15
40 0 8 -4 20 -8 26 -4 7 -1 17 7 23 11 9 18 8 30 -4 9 -9 16 -12 16 -7 0 8
-29 29 -132 96 -16 10 -28 16 -28 13 0 -3 15 -15 34 -27 23 -14 34 -27 31 -39
-2 -10 3 -18 11 -18 10 0 11 4 3 14 -8 9 -8 13 -1 13 10 0 38 -39 30 -41 -28
-8 -51 -2 -60 15 -6 12 -10 22 -9 24 2 2 0 6 -3 8 -3 2 -4 1 -1 -3 3 -3 -1
-13 -8 -21 -10 -13 -9 -14 2 -7 11 6 13 4 8 -9 -4 -10 -7 -20 -7 -22 0 -2 -4
-4 -9 -4 -5 0 -8 17 -7 37 3 37 3 37 -7 11 -6 -16 -14 -28 -19 -28 -4 0 -8 -5
-8 -10 0 -6 5 -9 12 -8 7 2 13 -4 14 -12 0 -8 2 -17 4 -20 7 -13 6 -49 -1 -44
-4 2 -5 12 -2 22 6 15 5 16 -13 2 -17 -13 -18 -13 -7 0 8 10 9 21 3 30 -9 14
-11 13 -14 -9 0 -5 -4 -12 -7 -16 -4 -3 -5 10 -3 30 3 31 1 35 -11 25 -8 -7
-12 -17 -8 -23 3 -6 1 -7 -6 -3 -8 6 -9 12 -2 20 6 7 8 16 4 19 -3 4 -12 -1
-20 -11 -13 -15 -13 -15 -4 5 7 14 8 24 1 28 -10 6 -11 5 -14 -14 0 -5 -4 -13
-8 -17 -4 -3 -6 3 -3 14 2 12 0 24 -6 27 -5 4 -9 16 -8 28 1 20 2 20 9 -3 8
-24 8 -24 10 -2 4 32 4 36 15 52 8 13 7 13 -8 1 -9 -7 -18 -11 -18 -7 -1 3 -2
10 -3 15 0 5 -5 13 -9 18 -5 4 -7 3 -5 -3 2 -7 -1 -12 -7 -12 -5 0 -9 4 -7 10
1 5 -2 7 -8 3 -8 -5 -8 -11 0 -20 16 -20 20 -72 6 -72 -7 0 -13 5 -13 11 0 6
-4 20 -8 31 -5 16 -5 17 4 5 6 -8 11 -10 11 -5 -1 6 -7 19 -15 29 -8 10 -12
23 -9 28 3 5 0 7 -8 6 -7 -2 -12 3 -10 10 1 8 -2 11 -8 7 -6 -4 -9 -9 -6 -12
3 -3 1 -15 -5 -26 -9 -15 -8 -18 2 -12 8 6 10 4 4 -5 -5 -8 -4 -11 3 -6 6 3
13 3 16 -2 10 -16 15 -62 7 -67 -5 -2 -8 3 -8 13 0 40 -4 53 -13 47 -6 -4 -8
-10 -5 -15 3 -5 1 -12 -5 -15 -6 -4 -10 -3 -9 2 1 4 0 11 -1 16 -1 4 -3 12 -4
17 0 6 -5 10 -11 9 -5 -1 -9 -5 -7 -11 1 -5 -2 -7 -8 -3 -6 3 -8 11 -5 16 9
13 -9 11 -25 -3 -12 -11 -12 -10 -2 4 9 11 10 18 2 23 -5 3 -10 14 -9 23 0 16
1 16 7 0 6 -15 9 -13 19 8 10 22 10 24 -3 14 -8 -7 -14 -9 -14 -5 0 4 -7 2
-15 -5 -11 -9 -12 -17 -4 -34 9 -19 9 -19 -4 -4 -8 10 -16 16 -18 13 -3 -2 -6
6 -6 18 -1 13 1 17 5 10 5 -9 12 -6 21 10 13 21 13 21 -4 7 -17 -14 -18 -13
-12 2 3 10 1 20 -6 24 -7 4 -9 4 -5 -1 4 -4 1 -20 -7 -35 -8 -15 -11 -31 -7
-35 4 -5 2 -5 -5 -1 -7 4 -9 14 -6 23 4 10 2 14 -4 10 -6 -4 -18 2 -27 12 -13
15 -14 18 -1 18 8 0 11 -5 8 -11 -3 -6 -3 -8 2 -4 4 4 14 3 22 -3 8 -7 13 -8
13 -1 0 10 -29 26 -42 24 -8 -2 -12 14 -9 32 1 5 -5 4 -13 -4 -9 -7 -16 -18
-16 -24 0 -6 5 -4 11 4 9 12 10 12 5 -4 -4 -12 2 -28 16 -45 l23 -26 -27 24
c-34 30 -43 57 -27 79 11 14 11 15 -1 5 -21 -19 -34 -16 -19 5 12 15 12 16 -2
4 -13 -10 -18 -10 -28 1 -6 8 -8 18 -4 23 4 5 2 4 -6 -3 -16 -13 -44 -6 -34
10 3 5 1 7 -5 3 -5 -3 -12 -1 -14 6 -3 7 -7 5 -11 -6 -4 -10 -3 -15 3 -11 6 3
13 -1 16 -9 3 -9 10 -14 14 -11 5 3 11 1 15 -5 4 -6 11 -7 17 -4 7 5 8 2 3 -6
-5 -8 -4 -11 2 -7 6 4 16 0 23 -8 7 -8 9 -15 5 -15 -4 0 -1 -8 6 -17 7 -10 -3
-3 -22 15 -28 26 -37 30 -48 20 -10 -11 -12 -10 -9 2 2 8 -2 14 -9 13 -8 -2
-10 4 -6 15 6 15 5 15 -11 3 -9 -8 -16 -10 -15 -5 4 20 -2 28 -10 14 -7 -9 -9
-3 -7 23 2 20 0 34 -5 32 -4 -3 -10 -1 -14 5 -8 13 -25 3 -25 -13 0 -8 3 -7 9
2 7 11 11 10 20 -7 8 -16 7 -23 -7 -33 -9 -7 -14 -9 -9 -4 4 4 0 16 -9 26 -9
10 -14 25 -11 33 4 9 3 17 -1 20 -4 3 -9 -5 -9 -16 -3 -37 -18 -39 -17 -2 1
19 -1 33 -4 30 -3 -3 -11 -1 -18 5 -11 9 -16 5 -24 -15 -13 -35 -21 -33 -10 3
10 34 -10 37 -35 5 -15 -19 -15 -19 -8 1 3 11 10 25 14 31 5 6 3 11 -6 11 -8
0 -12 -3 -10 -7 2 -3 0 -12 -6 -20 -7 -12 -9 -11 -9 6 0 12 -7 27 -15 34 -8 7
-12 17 -8 23 3 6 1 7 -6 3 -9 -6 -9 -11 -1 -21 7 -8 7 -15 1 -19 -16 -10 -24
33 -9 51 7 9 13 21 13 27 0 13 34 76 40 76 17 0 258 -129 533 -287 23 -13 42
-22 42 -19 0 3 -33 24 -72 47 -40 23 -143 84 -228 134 -85 51 -179 104 -207
119 -29 14 -53 31 -53 38 0 6 27 55 60 109 68 110 132 244 227 469 92 221 139
302 286 500 71 96 147 211 169 255 21 44 75 193 119 330 115 355 158 441 195
390 11 -15 14 -69 14 -234 0 -231 4 -269 66 -586 37 -194 63 -305 74 -318 16
-19 104 471 156 871 3 25 9 40 16 36 6 -4 8 -76 4 -213 -7 -240 5 -233 30 18
16 159 15 320 -2 521 l-6 65 23 -35 c12 -19 85 -154 161 -300 155 -294 211
-377 119 -175 -58 127 -173 462 -186 539 l-7 39 59 -50 c65 -56 172 -129 278
-190 39 -22 120 -68 180 -103 61 -34 131 -78 156 -96 62 -45 68 -43 20 9 -120
128 -361 573 -496 917 -18 47 -56 143 -84 214 -28 71 -50 131 -48 132 1 1 34
-22 72 -52 145 -112 394 -247 723 -391 263 -115 266 -116 231 -77 -37 42 -75
107 -208 362 -145 277 -150 290 -147 327 2 17 -1 41 -6 55 -5 14 -32 96 -58
184 -38 121 -47 163 -39 177 12 23 24 26 15 4 -3 -8 -1 -15 5 -15 12 0 52 -88
159 -350 130 -315 256 -551 359 -670 17 -19 -3 17 -45 80 -94 143 -213 380
-291 580 -34 85 -87 220 -118 300 -31 80 -66 166 -76 193 -10 26 -17 47 -15
47 2 0 28 -32 57 -71 44 -57 125 -133 217 -202 29 -23 23 6 -9 41 -35 37 -44
62 -24 69 6 2 40 -18 75 -44 36 -26 99 -61 142 -79 110 -47 199 -97 276 -155
l67 -52 -72 69 c-110 106 -226 274 -431 624 -148 254 -231 412 -271 513 -37
92 -38 107 -11 102 11 -2 20 2 20 8 0 7 4 6 10 -3 9 -13 10 -13 10 0 1 22 34
-54 59 -135 27 -87 62 -177 68 -172 2 2 -1 17 -8 33 -20 53 -99 338 -94 342
13 14 711 -303 801 -364 87 -59 95 -61 38 -7 -214 203 -699 1124 -999 1897
-32 83 -109 249 -172 370 -216 419 -381 776 -388 841 -2 17 -1 24 2 17 2 -6
10 -9 15 -6 7 4 8 2 4 -4 -4 -7 -3 -12 2 -12 5 0 40 -46 77 -102 111 -167 233
-334 358 -490 64 -80 216 -292 336 -472 195 -289 431 -616 506 -701 l27 -30
-24 34 c-13 18 -39 55 -58 81 -218 301 -586 866 -700 1075 -24 44 -132 215
-240 380 -210 318 -265 409 -256 423 2 4 16 75 31 157 35 200 53 287 131 608
36 150 83 360 104 467 21 107 48 238 59 291 12 53 30 159 41 235 12 76 33 216
47 309 16 103 27 227 29 315 2 80 12 276 22 435 18 267 16 414 -3 434 -3 3
-19 0 -35 -7 -17 -7 -45 -17 -62 -24 -90 -31 -147 -53 -308 -117 -96 -37 -254
-94 -350 -126 -170 -56 -367 -128 -541 -198 -47 -20 -135 -51 -195 -70 -60
-19 -172 -63 -248 -96 -185 -81 -412 -167 -681 -257 -121 -40 -307 -102 -414
-138 -106 -37 -202 -66 -212 -66 -10 0 -21 9 -24 20 -9 28 -118 104 -217 149
-97 45 -202 71 -288 71 -60 0 -227 -37 -296 -66 -24 -10 -34 -11 -34 -3 0 7
75 87 168 178 170 169 268 241 376 279 23 7 45 17 51 22 28 24 182 92 246 110
131 36 283 23 479 -41 130 -42 239 -95 339 -163 46 -31 85 -55 87 -53 2 1 -29
29 -69 60 -133 106 -435 243 -652 298 -44 11 -87 22 -95 25 -8 3 22 16 66 29
86 25 167 55 162 60 -2 2 -48 -7 -102 -20 -116 -29 -132 -30 -341 -20 -173 8
-314 -6 -465 -46 -275 -73 -499 -222 -635 -424 -26 -38 -51 -70 -55 -70 -7 0
-65 83 -225 320 -135 201 -241 387 -345 605 -51 108 -55 120 -55 190 1 137 42
206 200 338 63 52 57 53 -10 3z m-200 -252 c-26 -77 -17 -165 28 -269 38 -87
45 -120 11 -51 -10 22 -22 37 -27 34 -4 -2 -4 -9 -1 -15 4 -7 2 -8 -5 -4 -9 6
-9 11 -1 21 8 10 8 15 -1 21 -8 4 -9 3 -5 -4 4 -7 3 -12 -3 -12 -5 0 -12 6
-15 13 -3 6 -4 -1 -1 -18 l5 -30 -14 25 c-8 14 -12 29 -9 34 4 5 1 6 -4 3 -8
-5 -7 -21 3 -52 20 -67 2 -47 -31 34 -26 66 -27 74 -16 127 17 86 82 217 99
200 2 -3 -4 -28 -13 -57z m-1095 -1330 c105 -13 229 -44 244 -60 7 -7 7 -10 0
-6 -17 10 -64 16 -64 9 0 -4 -87 -7 -192 -7 -183 -1 -202 -3 -370 -38 -112
-24 -203 -37 -251 -37 -73 0 -217 26 -217 39 0 7 294 75 400 93 157 25 284 28
450 7z m210 -69 c0 -5 -5 -10 -11 -10 -5 0 -7 5 -4 10 3 6 8 10 11 10 2 0 4
-4 4 -10z m2703 -153 c-3 -6 -1 -7 5 -3 6 4 26 -7 44 -24 l33 -30 -48 2 c-33
1 -46 6 -43 14 3 8 -2 11 -14 9 -18 -3 -22 16 -7 31 4 4 2 13 -5 21 -10 12 -7
12 15 2 15 -7 24 -16 20 -22z m-50 10 c18 5 20 3 10 -8 -20 -21 -39 -19 -40 5
-1 11 1 16 3 10 3 -7 15 -9 27 -7z m-65 -9 c-2 -7 2 -12 8 -11 6 1 11 -4 11
-11 0 -18 -32 -13 -33 5 0 16 5 29 12 29 2 0 3 -6 2 -12z m-80 -16 c29 -10 55
-22 59 -25 9 -10 65 -8 59 1 -3 5 1 9 8 9 8 0 12 -6 9 -14 -8 -21 -52 -15
-133 17 -83 32 -84 41 -2 12z m1917 -2226 c180 -223 390 -539 505 -760 76
-145 164 -343 244 -553 35 -92 112 -294 171 -447 103 -271 158 -408 195 -491
10 -22 45 -101 78 -175 33 -74 77 -171 97 -215 21 -44 38 -86 39 -93 1 -7 8
-18 14 -24 7 -7 12 -17 12 -22 0 -6 -8 1 -17 14 -10 14 -15 26 -13 27 3 1 -4
8 -14 16 -10 8 -16 19 -13 24 4 6 0 13 -8 16 -19 8 -48 65 -41 83 3 7 0 16 -6
20 -7 4 -8 3 -4 -4 4 -7 2 -12 -3 -12 -6 0 -11 4 -11 9 0 9 -31 78 -129 284
-23 49 -50 110 -61 136 -10 27 -27 68 -38 92 -10 24 -49 118 -85 209 -36 91
-80 199 -97 240 -18 41 -65 163 -105 270 -40 107 -89 231 -108 275 -47 109
-149 316 -153 312 -2 -2 18 -51 45 -108 71 -150 144 -337 212 -543 64 -190 80
-268 53 -245 -9 7 -22 26 -31 43 -21 42 -59 86 -67 79 -3 -4 -6 2 -6 12 0 10
-3 15 -7 12 -3 -4 -37 25 -74 64 -45 46 -73 68 -81 63 -10 -6 -10 -4 -2 7 9
11 5 19 -17 37 l-28 22 5 -27 c3 -15 7 -29 9 -31 2 -2 0 -15 -5 -28 -7 -16 -6
-22 3 -20 7 1 9 1 5 -1 -5 -3 -8 -9 -8 -14 0 -6 4 -8 8 -5 5 3 9 -2 9 -10 0
-12 -3 -13 -13 -2 -14 15 -94 201 -94 219 0 7 -2 10 -5 7 -3 -3 15 -93 41
-199 56 -230 61 -259 44 -259 -9 0 -10 -3 -1 -13 8 -10 7 -14 -4 -14 -7 0 -14
3 -13 6 2 21 -4 31 -14 25 -7 -4 -8 -3 -4 4 4 7 -5 24 -22 40 -16 15 -42 48
-57 75 -15 26 -28 47 -30 47 -1 0 12 -45 30 -100 32 -96 38 -135 19 -135 -5 0
-21 22 -35 48 -14 27 -33 56 -42 65 -16 15 -17 15 -17 0 0 -9 7 -47 16 -85 23
-98 25 -118 8 -101 -15 15 -134 255 -184 370 -18 42 -37 75 -41 72 -19 -11
-111 196 -189 423 -32 93 -36 113 -23 117 20 8 33 -2 26 -19 -3 -9 1 -15 8
-15 11 0 11 -3 -1 -10 -13 -8 -12 -10 3 -10 15 0 18 -4 17 -25 0 -3 6 -18 14
-34 9 -16 12 -31 9 -35 -4 -3 0 -6 7 -6 7 0 11 -3 7 -6 -3 -4 1 -20 9 -36 9
-17 18 -40 20 -51 7 -29 10 -39 17 -57 4 -8 16 -41 28 -73 29 -81 36 -64 8 20
-13 37 -24 73 -25 78 -3 16 -45 148 -54 171 -5 14 -4 26 3 34 9 10 9 11 0 6
-13 -7 -16 0 -16 37 0 10 -5 16 -12 14 -6 -3 -12 1 -12 9 0 7 4 11 8 8 4 -2 4
9 -1 26 -5 16 -6 30 -3 30 3 0 0 6 -6 14 -6 8 -11 18 -10 22 1 5 1 22 0 37 -1
20 -5 26 -13 21 -8 -5 -7 0 2 11 9 11 10 16 3 11 -12 -6 -16 4 -12 30 0 4 -5
11 -13 15 -8 5 -9 9 -2 9 15 0 36 -25 27 -33 -3 -4 -1 -7 4 -7 6 0 24 -20 40
-45 15 -25 32 -45 36 -45 5 0 6 -4 3 -8 -3 -5 7 -26 22 -48 14 -21 48 -82 75
-134 51 -100 53 -85 6 38 -15 40 -31 86 -34 102 -4 17 -11 30 -15 30 -5 0 -6
7 -3 17 4 10 2 14 -4 10 -7 -5 -9 1 -5 15 3 12 1 19 -4 15 -6 -3 -10 2 -11 11
-1 10 -21 69 -46 132 -25 63 -48 126 -52 140 -4 14 -27 69 -52 122 -24 54 -46
107 -48 119 -4 22 -4 22 22 -2 14 -13 65 -78 114 -144 48 -66 96 -130 108
-142 11 -13 18 -23 14 -23 -3 0 0 -7 7 -15 15 -18 29 -11 25 13 -1 9 3 23 9
31 9 12 8 12 -12 2 -18 -9 -22 -9 -20 1 2 7 -2 12 -8 11 -6 -1 -11 5 -11 12 0
11 4 12 13 4 10 -8 13 -6 12 8 0 10 2 30 5 45 3 15 1 30 -4 34 -5 3 -7 10 -4
15 4 5 2 9 -4 9 -6 0 -8 6 -5 14 3 8 0 17 -5 21 -6 3 -8 11 -5 17 4 7 2 8 -4
4 -7 -4 -12 -1 -12 9 0 10 -5 13 -12 9 -7 -4 -8 -3 -4 4 8 14 -20 72 -35 72
-6 0 -7 5 -4 10 3 6 1 10 -6 10 -7 0 -9 3 -6 6 4 4 -2 19 -12 33 -10 14 -23
36 -30 48 -10 20 -9 22 6 16 16 -6 17 -5 3 13 -14 18 -14 18 3 5 14 -11 15
-16 5 -29 -11 -13 -11 -14 0 -8 16 10 54 -22 45 -37 -3 -5 -2 -7 4 -4 5 3 17
-3 26 -14 9 -10 15 -19 12 -19 -3 0 3 -8 13 -18 49 -53 91 -102 85 -102 -3 0
0 -7 7 -15 7 -8 18 -15 24 -15 6 0 4 5 -4 10 -8 5 -11 10 -7 10 17 0 -84 153
-233 352 -36 48 -80 109 -98 135 -30 43 -26 40 40 -27 40 -41 109 -120 153
-174z m913 75 c0 -3 0 -17 2 -31 1 -23 2 -23 10 -5 5 11 9 14 9 8 1 -7 0 -14
-1 -16 -2 -1 7 -14 20 -27 13 -14 33 -41 44 -60 42 -69 145 -228 277 -425 132
-198 177 -273 173 -287 -1 -5 2 -8 8 -8 5 0 14 -10 21 -22 11 -21 10 -22 -6
-7 -16 16 -79 94 -163 204 -48 62 -291 423 -357 529 -27 43 -50 88 -51 100 -1
11 -3 21 -4 21 -1 0 -3 7 -5 16 -1 9 3 16 11 16 7 0 13 -3 12 -6z m-1011 -106
c0 -8 -4 -12 -9 -9 -5 4 -7 9 -4 12 3 3 -2 15 -11 26 -18 21 -18 21 3 3 11 -9
21 -24 21 -32z m898 -315 c190 -287 324 -518 535 -925 84 -163 186 -345 282
-510 20 -33 132 -251 250 -485 214 -424 328 -634 400 -742 41 -62 38 -85 -7
-38 -16 17 -24 33 -20 41 5 7 4 10 -3 5 -12 -7 -70 73 -118 164 -16 30 -32 56
-36 58 -5 2 -8 9 -8 16 0 7 -8 23 -17 34 -10 12 -40 54 -68 94 -27 39 -69 94
-92 122 -149 181 -364 515 -455 706 -59 125 -128 259 -237 459 -28 52 -51 97
-51 102 0 4 -4 9 -8 11 -5 2 -26 38 -46 81 -22 45 -42 74 -48 70 -7 -3 -8 -1
-4 5 4 6 -5 33 -20 59 -15 27 -40 73 -57 103 -17 30 -38 67 -49 82 -10 14 -18
28 -18 31 0 3 -18 35 -40 71 -22 36 -40 68 -40 71 0 5 -172 306 -236 411 -41
68 -48 94 -30 111 4 4 6 2 4 -6 -1 -7 5 -15 15 -16 10 -2 17 3 17 11 0 9 -4
12 -10 9 -11 -7 -3 23 11 41 5 6 8 13 6 15 -1 3 15 -13 36 -35 22 -23 94 -124
162 -226z m-787 -13 c-1 -3 7 -17 20 -30 15 -16 20 -27 13 -32 -7 -3 -10 -3
-9 2 2 4 -1 9 -7 10 -5 0 -9 -3 -7 -9 1 -5 -2 -7 -8 -3 -8 5 -8 11 -1 19 6 7
8 16 4 20 -4 3 -8 14 -9 22 -1 9 0 14 3 11 2 -3 3 -8 1 -10z m49 -24 c0 -9 -4
-10 -14 -2 -7 6 -13 12 -13 14 0 1 6 2 13 2 8 0 14 -6 14 -14z m-3947 -247
c-13 -25 -28 -42 -33 -39 -6 4 -7 1 -3 -6 16 -25 -208 -412 -299 -515 -14 -16
-25 -34 -25 -40 -1 -6 -7 0 -15 14 -17 29 -19 22 -5 -14 11 -30 -2 -43 -21
-19 -10 12 -10 14 -1 9 7 -4 12 -1 12 9 0 9 -4 13 -10 10 -5 -3 -1 13 9 37 53
123 73 163 117 235 26 43 47 84 47 91 0 6 2 10 5 8 9 -10 44 33 37 45 -6 8 -4
10 4 5 8 -6 11 -2 9 10 -2 14 2 18 16 16 17 -3 18 -2 7 12 -12 14 -11 16 3 10
19 -7 21 -4 95 98 27 37 52 64 56 60 5 -4 5 2 1 13 -5 15 -4 17 5 8 9 -9 6
-22 -11 -57z m823 -63 c-3 -10 -3 -15 2 -11 4 4 17 2 29 -4 20 -11 20 -10 3 9
-14 16 -14 20 -2 20 8 0 12 -4 9 -9 -3 -4 2 -8 11 -8 9 0 13 -4 10 -10 -3 -5
0 -7 8 -4 8 3 14 -1 14 -10 0 -8 -5 -12 -10 -9 -6 3 -7 1 -3 -5 4 -6 2 -20 -4
-31 -7 -14 -7 -22 2 -27 6 -4 8 -3 5 3 -4 6 0 19 8 29 13 18 14 18 9 -6 -5
-20 -3 -22 5 -10 6 8 11 10 11 4 0 -6 -3 -14 -7 -18 -4 -4 -8 -13 -8 -19 0
-17 -82 -162 -100 -177 -8 -7 -15 -16 -15 -21 0 -4 -61 -90 -136 -191 -74
-101 -160 -218 -191 -261 -31 -44 -59 -74 -65 -71 -6 4 -8 2 -4 -4 3 -6 2 -13
-4 -17 -5 -3 -10 0 -11 7 0 7 -4 4 -9 -7 -7 -17 -9 -18 -9 -2 -1 24 112 227
131 235 5 2 6 8 2 13 -3 5 -1 9 3 9 5 0 17 16 27 35 11 19 24 32 30 28 6 -3 8
-3 4 2 -4 4 -3 15 3 24 16 23 -29 -27 -76 -84 -44 -53 -125 -136 -125 -128 0
3 23 45 50 94 28 49 50 90 50 93 0 2 24 43 53 92 29 49 72 127 96 174 65 126
122 223 143 241 9 9 14 20 10 24 -4 5 -2 5 5 2 6 -4 14 -1 17 5 3 7 3 1 1 -14
-2 -15 1 -30 6 -34 5 -3 9 -2 8 3 -3 20 2 27 11 13 7 -11 10 -11 10 -2 0 7 5
10 12 6 6 -4 8 -3 4 4 -3 6 -15 9 -26 7 -17 -3 -19 -1 -10 16 13 24 22 25 13
2z m332 -103 c-1 -22 -9 -47 -16 -56 -17 -21 -20 -42 -7 -51 6 -3 8 -2 5 4 -3
5 0 10 8 10 13 0 13 -3 1 -16 -7 -9 -18 -31 -24 -49 -6 -18 -20 -46 -32 -61
-11 -16 -20 -32 -20 -36 0 -9 -141 -223 -237 -358 -107 -153 -149 -204 -175
-218 -17 -9 -12 6 26 74 25 47 42 88 37 91 -5 3 -40 -28 -79 -70 -69 -75 -86
-77 -48 -4 10 19 98 150 195 290 172 250 278 390 293 390 4 0 8 5 8 10 0 6 11
21 25 34 13 13 21 27 17 31 -4 5 -1 5 6 1 7 -4 12 -1 12 8 0 9 2 16 4 16 2 0
3 -18 1 -40z m2569 -6 c3 -8 2 -12 -4 -9 -6 3 -10 10 -10 16 0 14 7 11 14 -7z
m53 -11 c1 -24 0 -25 -6 -8 -7 17 -6 35 2 35 2 0 3 -12 4 -27z m-137 -283 c37
-99 93 -274 104 -330 3 -14 10 -43 15 -65 19 -79 31 -150 35 -208 2 -36 0 -44
-12 -39 -10 3 -13 1 -8 -6 4 -7 5 -12 1 -12 -3 0 -10 10 -15 23 -9 22 -9 22
-9 -3 0 -14 4 -46 8 -72 5 -28 4 -48 -1 -48 -5 0 -6 -6 -2 -12 4 -7 -2 -4 -13
7 -11 11 -19 22 -17 24 1 2 -1 8 -7 15 -41 50 -49 59 -42 46 11 -22 10 -74 -2
-82 -6 -5 -5 -8 3 -8 7 0 10 -5 7 -10 -4 -6 -12 -7 -18 -3 -9 5 -9 3 0 -8 9
-11 8 -18 -3 -33 -8 -11 -14 -15 -14 -10 0 6 5 15 12 22 9 9 9 12 0 12 -7 0
-12 -5 -12 -11 0 -5 -4 -7 -10 -4 -6 4 -7 -1 -3 -11 5 -13 3 -15 -8 -9 -12 7
-12 6 -1 -7 10 -12 9 -18 -3 -28 -8 -7 -12 -17 -8 -24 4 -7 1 -6 -9 1 -8 7
-19 9 -23 5 -5 -4 -5 -2 -2 4 4 7 0 15 -9 18 -8 3 -12 11 -8 17 4 8 3 9 -4 5
-7 -4 -12 -1 -12 8 0 8 -4 18 -10 21 -6 4 -7 -1 -3 -11 5 -13 3 -15 -8 -9 -12
8 -12 6 0 -9 8 -9 10 -16 5 -14 -5 2 -9 -1 -9 -7 0 -5 5 -9 10 -7 6 2 6 0 2
-4 -11 -11 -38 -14 -32 -4 3 5 1 12 -5 15 -8 5 -7 12 2 23 10 12 10 14 1 8
-13 -7 -14 -4 -17 46 -1 15 -5 30 -9 34 -4 4 -7 18 -7 30 0 13 -4 25 -9 28 -5
3 -7 15 -4 26 3 11 -1 28 -8 37 -8 9 -9 14 -3 10 7 -4 10 2 6 18 -2 14 -8 22
-13 19 -5 -3 -5 5 0 18 9 25 4 51 -8 44 -4 -3 -8 1 -8 9 0 8 4 12 8 10 4 -3 5
4 2 15 -3 11 -10 20 -17 20 -6 0 -4 5 4 10 12 8 12 10 1 10 -8 0 -11 3 -8 6 3
4 2 16 -4 27 -9 15 -8 18 2 12 9 -6 10 -4 3 6 -5 8 -10 25 -10 39 -1 14 -3 25
-4 25 -3 0 -9 70 -13 148 -2 37 0 67 4 67 4 0 5 9 2 20 -3 11 0 20 5 20 6 0
16 10 23 22 10 19 9 20 -7 14 -15 -5 -16 -4 -7 5 19 19 33 2 22 -29 l-10 -27
26 30 c15 17 24 24 20 18 -3 -7 -1 -13 4 -13 6 0 11 -5 11 -11 0 -8 -4 -8 -13
0 -10 8 -14 7 -14 -3 0 -8 6 -13 13 -12 18 3 24 10 29 35 3 15 0 19 -8 14 -7
-4 -6 0 2 10 11 14 11 17 0 17 -9 0 -10 3 -4 8 6 4 11 18 13 32 1 14 3 31 4
37 1 10 5 10 15 2 10 -9 11 -15 1 -26 -9 -11 -8 -13 3 -11 8 2 13 -3 12 -9 -2
-7 2 -13 8 -13 5 0 7 -4 4 -10 -3 -5 -2 -10 4 -10 6 0 14 -12 17 -27 4 -16 13
-37 21 -48 12 -18 13 -16 9 21 -3 23 -10 53 -15 68 -6 14 -8 26 -5 26 3 0 2 6
-3 13 -4 6 -9 21 -10 32 -2 11 -15 57 -28 101 -14 45 -25 88 -24 95 1 23 87
-157 129 -271z m100 266 c0 -2 -7 -7 -16 -10 -8 -3 -12 -2 -9 4 6 10 25 14 25
6z m-1127 -176 c10 -12 9 -12 -5 -2 -10 8 -18 9 -22 3 -4 -5 -2 -12 4 -16 6
-4 8 -11 5 -16 -6 -9 5 -11 56 -12 21 0 25 -5 26 -31 1 -19 -1 -23 -4 -11 -3
11 -9 24 -14 29 -5 6 -5 -4 0 -21 5 -18 6 -35 3 -39 -4 -3 3 -1 15 7 12 7 19
18 16 24 -4 5 -3 7 1 3 4 -3 8 -10 8 -15 0 -4 5 -15 11 -23 10 -13 10 -13 -5
-1 -14 11 -18 11 -18 1 0 -8 8 -22 18 -33 9 -11 11 -17 4 -13 -10 6 -11 1 -6
-21 16 -71 -4 -208 -81 -563 -72 -326 -93 -399 -125 -419 -23 -14 -24 -14 -13
0 16 20 5 33 -15 16 -13 -9 -14 -9 -8 1 4 6 2 13 -3 13 -6 1 -17 2 -23 3 -7 1
-16 -3 -20 -9 -4 -5 -8 -1 -8 10 0 16 -2 17 -10 5 -8 -13 -60 -23 -58 -11 0 3
0 13 -1 21 -1 13 -2 13 -11 0 -8 -12 -10 -12 -10 5 0 17 -2 17 -10 5 -8 -12
-10 -10 -11 10 0 23 -1 23 -9 5 -7 -17 -9 -17 -9 -2 -1 9 -5 17 -11 17 -5 0
-14 -8 -20 -17 -7 -13 -9 19 -6 117 4 135 4 136 100 484 53 193 96 355 96 360
0 6 9 22 19 35 l18 24 -4 -54 c-2 -30 -8 -90 -13 -133 -10 -82 -7 -113 5 -54
9 43 53 192 71 241 8 20 10 37 6 37 -4 0 -1 4 6 9 7 4 15 17 17 27 2 10 4 20
4 21 3 6 33 -6 44 -17z m-2576 -15 c0 -8 -4 -12 -8 -9 -4 2 -11 -1 -16 -8 -14
-23 -10 -52 10 -75 15 -17 17 -27 9 -50 -5 -15 -15 -27 -22 -25 -8 2 -10 -3
-6 -13 3 -9 2 -13 -3 -10 -5 3 -11 -3 -14 -12 -2 -10 -4 -1 -3 19 0 23 3 33 8
25 10 -15 9 2 -1 28 -5 11 -4 28 1 38 5 11 5 17 -2 17 -5 0 -10 -7 -10 -16 0
-8 -5 -12 -10 -9 -7 5 -8 11 -1 19 6 7 6 17 1 26 -9 13 -10 13 -10 0 0 -13 -1
-13 -10 0 -6 9 -10 10 -10 3 0 -6 5 -15 10 -18 8 -5 7 -12 -2 -23 -8 -10 -9
-13 -1 -9 6 4 14 4 16 0 7 -11 -22 -78 -29 -70 -3 3 0 15 6 27 6 12 9 24 7 27
-3 2 -8 -5 -12 -16 -3 -12 -11 -19 -16 -16 -5 3 -6 0 -3 -8 3 -9 -2 -13 -18
-12 -19 1 -22 7 -21 41 0 21 -4 46 -11 54 -10 13 -9 13 7 1 20 -15 23 -2 5 20
-7 7 -5 7 6 -2 14 -13 16 -21 7 -37 -8 -14 -8 -23 -1 -27 6 -4 9 -3 8 2 -1 4
2 18 6 31 5 15 3 29 -6 39 -8 11 -8 14 -1 10 7 -4 16 0 22 10 6 10 11 13 11 6
0 -6 -5 -15 -10 -18 -7 -4 -7 -12 0 -24 5 -10 7 -21 5 -25 -3 -3 -2 -4 2 -1 3
3 8 15 9 28 1 12 5 31 7 42 3 11 6 21 6 23 1 2 6 0 12 -4 8 -4 8 -9 0 -17 -20
-20 -12 -31 9 -12 11 10 17 21 14 26 -2 4 4 6 16 4 11 -2 22 0 25 6 9 13 12
11 12 -6z m2621 -10 c-3 -3 -9 2 -12 12 -6 14 -5 15 5 6 7 -7 10 -15 7 -18z
m29 18 c-4 -3 -1 -13 6 -22 11 -14 10 -14 -5 -2 -16 12 -16 31 -1 31 4 0 3 -3
0 -7z m-2767 -7 c0 -2 -8 -10 -17 -17 -16 -13 -17 -12 -4 4 13 16 21 21 21 13z
m121 -83 c13 -16 12 -17 -3 -4 -17 13 -22 21 -14 21 2 0 10 -8 17 -17z m36 0
c0 -9 -4 -10 -14 -2 -7 6 -13 12 -13 14 0 1 6 2 13 2 8 0 14 -6 14 -14z m1550
1 c0 -7 -5 -10 -10 -7 -7 4 -8 -1 -4 -13 7 -19 7 -19 -8 0 -8 10 -12 22 -10
26 7 12 32 7 32 -6z m1818 -14 c3 -6 -1 -7 -9 -4 -18 7 -21 14 -7 14 6 0 13
-4 16 -10z m-1890 -10 c3 -6 -1 -7 -9 -4 -18 7 -21 14 -7 14 6 0 13 -4 16 -10z
m-1687 -38 c-4 -24 10 -42 27 -35 10 3 15 -1 15 -13 0 -10 10 -29 23 -43 l22
-26 -27 24 c-16 14 -28 32 -28 40 0 14 -1 14 -10 1 -7 -11 -10 -11 -10 -2 0 7
-5 10 -10 7 -6 -4 -7 -12 -4 -18 4 -7 3 -8 -2 -4 -11 10 -12 97 -1 90 4 -3 7
-12 5 -21z m108 -31 c-1 -38 -5 -58 -12 -57 -20 3 -44 28 -43 45 0 14 1 13 7
-2 6 -14 12 -8 27 28 11 25 21 45 21 45 1 0 1 -26 0 -59z m1564 48 c13 -9 12
-10 -2 -5 -13 4 -15 1 -11 -11 5 -11 3 -14 -6 -9 -9 6 -9 3 1 -13 11 -18 11
-23 -2 -31 -8 -5 -11 -10 -7 -10 4 0 3 -10 -3 -22 -11 -22 -11 -22 4 -3 8 11
20 26 26 33 6 6 8 12 4 12 -4 0 7 14 24 30 18 17 27 30 20 30 -6 0 -9 2 -6 5
3 3 12 3 21 -1 12 -4 14 -11 8 -22 -5 -10 -10 -21 -11 -27 -18 -80 -142 -362
-203 -465 -78 -130 -226 -348 -257 -378 -17 -18 -37 -32 -43 -31 -7 0 -7 3 2
6 8 3 9 8 3 12 -6 3 8 42 34 95 51 103 55 122 15 75 -16 -19 -41 -47 -55 -64
-14 -16 -26 -25 -26 -19 0 21 78 239 113 315 93 202 110 231 187 317 12 12 18
22 16 22 -5 0 36 49 82 96 13 13 19 24 15 24 -4 0 0 5 10 11 9 5 17 17 17 24
0 18 9 19 30 4z m1865 -17 c-3 -3 -11 0 -18 7 -9 10 -8 11 6 5 10 -3 15 -9 12
-12z m-1309 -15 c1 -9 -2 -15 -7 -11 -5 3 -7 9 -4 14 3 4 0 11 -5 13 -6 3 -5
4 1 3 7 -1 13 -10 15 -19z m-99 -2 c0 -8 -4 -12 -9 -9 -5 3 -6 10 -3 15 9 13
12 11 12 -6z m-721 -24 c-2 -15 -6 -34 -11 -40 -4 -7 -7 -29 -7 -49 0 -114
-262 -636 -327 -650 -9 -2 -12 4 -8 18 3 11 1 20 -3 20 -36 0 90 323 198 509
59 102 124 191 134 185 7 -4 8 -2 4 4 -8 13 0 32 14 32 5 0 8 -13 6 -29z m808
-17 c-4 -62 -19 -134 -73 -349 -67 -264 -135 -483 -157 -503 -9 -8 -10 -8 -4
0 6 7 10 19 10 27 0 11 -4 10 -16 -5 -13 -15 -13 -13 1 10 9 16 13 26 7 22 -6
-3 -9 14 -8 44 1 27 -2 46 -7 43 -4 -3 -6 -11 -3 -18 3 -10 -2 -12 -20 -9 -18
3 -23 1 -18 -7 4 -8 3 -9 -5 -5 -6 4 -8 12 -5 18 4 6 1 8 -7 6 -8 -3 -13 -12
-11 -19 1 -8 -7 -3 -18 10 -19 22 -21 55 -4 82 4 7 3 9 -4 5 -13 -8 -23 21
-17 52 2 12 0 20 -5 17 -8 -5 -7 -46 2 -75 3 -8 3 -12 1 -7 -3 4 -9 4 -14 1
-6 -3 -5 -12 3 -22 11 -15 11 -15 -4 -4 -12 10 -15 24 -12 55 6 54 74 228 87
220 6 -3 7 -1 4 4 -9 14 13 74 24 67 5 -3 6 2 3 10 -6 17 26 77 37 70 4 -2 11
1 15 7 4 8 3 9 -4 5 -15 -9 -15 9 -1 35 6 12 17 18 25 15 8 -3 13 -2 10 3 -3
5 1 14 9 21 12 10 13 16 3 28 -11 13 -10 15 4 9 12 -4 15 -2 11 9 -3 9 0 14 8
12 8 -2 12 3 10 12 -7 29 -9 62 -4 56 11 -11 32 15 26 32 -3 11 -2 13 4 6 4
-6 16 -10 26 -8 17 2 18 1 3 -15 -15 -16 -15 -19 -1 -31 11 -9 13 -16 6 -23
-7 -7 -7 -15 -1 -22 7 -8 5 -12 -4 -12 -8 0 -12 10 -11 28 2 18 -1 26 -8 22
-6 -4 -7 -1 -2 7 5 9 4 11 -4 6 -6 -4 -8 -13 -4 -19 4 -7 8 -19 9 -27 0 -8 4
-23 9 -33 7 -17 8 -17 22 3 8 11 11 25 8 30 -3 6 -1 10 6 10 7 0 10 3 6 6 -3
4 1 14 10 22 10 11 12 17 4 20 -7 2 -6 9 4 19 8 8 15 23 15 35 0 11 5 18 13
15 6 -2 12 -12 11 -23z m699 -8 c11 11 -2 -37 -13 -51 -8 -9 -8 -15 -1 -20 11
-6 10 -112 -1 -131 -3 -5 -6 -34 -7 -64 -1 -30 -9 -91 -17 -135 -8 -44 -17
-91 -20 -105 -2 -14 -16 -65 -29 -115 -13 -49 -28 -105 -33 -124 -4 -19 -14
-37 -22 -39 -11 -4 -12 9 -7 69 7 83 91 552 112 624 1 6 3 15 5 20 1 6 6 15
12 22 5 7 6 18 2 25 -14 23 -14 40 0 29 7 -6 16 -8 19 -5z m-1134 -62 c-6 -8
-8 -14 -4 -14 4 0 1 -7 -6 -16 -7 -9 -14 -22 -16 -30 -25 -121 -310 -640 -314
-572 0 7 -5 4 -10 -7 -7 -15 -8 -11 -5 18 7 51 94 232 158 326 53 77 158 257
158 270 0 15 32 51 41 45 6 -4 6 -11 -2 -20z m282 -31 c13 -16 12 -17 -3 -4
-17 13 -22 21 -14 21 2 0 10 -8 17 -17z m-21 -57 c0 -2 -7 -9 -15 -16 -13 -11
-14 -10 -9 4 5 14 24 23 24 12z m1020 -633 c65 -145 129 -324 191 -532 67
-226 94 -333 214 -836 32 -132 73 -303 91 -380 18 -77 35 -149 37 -160 2 -11
7 -28 12 -38 4 -9 5 -27 2 -38 -3 -12 -2 -29 3 -38 9 -19 26 -200 41 -451 5
-96 14 -186 18 -200 22 -68 26 342 5 505 -12 93 12 34 104 -251 142 -440 172
-581 172 -819 0 -322 -91 -907 -190 -1214 -11 -35 -20 -78 -20 -95 1 -31 1
-30 26 17 13 26 29 47 34 47 19 0 10 -22 -37 -92 -68 -100 -98 -151 -86 -147
46 18 296 363 400 553 l45 81 -7 -45 c-11 -79 -76 -303 -106 -362 -16 -32 -61
-106 -100 -165 -87 -131 -125 -207 -224 -439 -126 -296 -307 -631 -435 -803
-157 -211 -451 -463 -840 -719 -63 -41 -149 -101 -190 -133 -113 -85 -220
-152 -485 -304 -480 -275 -780 -423 -945 -467 -228 -60 -498 47 -1245 495
-579 346 -944 614 -1235 906 -148 149 -221 237 -320 386 -131 200 -197 345
-320 715 -45 135 -102 287 -126 339 -24 51 -44 101 -44 110 0 8 -45 90 -99
181 -124 207 -172 298 -175 336 -1 16 -6 40 -10 54 -4 14 22 -30 58 -98 74
-139 162 -274 246 -377 85 -104 217 -241 225 -234 3 4 -9 38 -28 75 -19 38
-48 112 -65 164 -86 266 -103 324 -98 337 3 8 1 11 -4 8 -6 -4 -10 6 -11 22 0
15 -2 35 -4 43 -2 8 -6 29 -10 45 -3 17 -10 50 -15 75 -5 25 -12 59 -15 75
-19 120 -22 140 -25 140 -1 0 -4 25 -5 55 -2 30 -4 56 -4 58 -1 1 -1 5 0 8 0
4 -5 11 -13 15 -10 7 -10 9 0 9 10 0 10 5 1 21 -9 17 -8 20 3 13 11 -6 11 -5
-1 9 -11 14 -11 17 0 17 9 0 10 3 4 8 -5 4 -11 18 -12 32 -2 14 -5 39 -7 55
-23 185 -26 236 -12 254 9 12 8 13 -4 6 -9 -5 -7 1 5 15 11 13 13 20 5 15 -9
-6 -7 4 8 29 12 20 17 34 11 30 -8 -4 -8 0 0 15 14 25 13 25 55 7 30 -13 42
-31 104 -160 39 -80 90 -173 113 -208 41 -61 245 -278 261 -278 4 0 -8 21 -28
48 -20 26 -45 65 -54 87 -30 70 -60 206 -67 301 l-6 90 38 31 c50 42 237 137
305 157 51 15 204 46 224 46 5 0 -2 -9 -16 -19 -29 -23 -71 -99 -99 -178 -30
-84 -36 -243 -15 -357 40 -209 120 -353 245 -439 41 -28 55 -31 131 -34 47 -2
128 0 180 5 l95 9 -152 2 c-83 0 -164 6 -180 11 -34 13 -93 74 -94 98 -4 66
20 142 44 142 4 0 5 5 2 10 -4 6 -3 10 2 9 21 -4 34 2 27 13 -4 6 -3 8 4 4 22
-13 42 24 42 78 0 49 3 56 46 100 25 26 48 46 50 43 3 -3 12 -31 20 -64 20
-78 74 -155 129 -184 40 -21 47 -22 77 -10 18 7 50 16 71 21 21 4 50 19 65 33
15 14 40 31 56 37 25 9 27 8 22 -6 -5 -14 -4 -15 9 -4 11 9 15 9 15 1 0 -7 5
-9 10 -6 9 5 27 -49 23 -66 -1 -3 4 -6 12 -6 8 0 12 4 10 8 -3 4 3 6 12 5 10
-2 19 -13 21 -25 4 -28 -62 -148 -102 -184 -17 -16 -25 -25 -17 -21 9 4 12 3
7 -4 -3 -5 -25 -13 -49 -17 -38 -7 -40 -8 -18 -16 29 -11 116 -1 156 18 53 25
151 171 204 303 35 87 56 228 46 305 -3 31 -17 69 -30 89 l-23 34 76 -40 c93
-49 135 -73 185 -106 71 -47 58 -3 -34 114 -77 97 -198 198 -349 289 -118 72
-201 109 -309 141 -99 29 -108 34 -57 34 51 0 179 44 246 84 194 116 334 177
440 190 25 4 56 8 70 10 132 23 192 28 256 23 41 -3 74 -2 72 2 -5 13 -162
153 -200 178 l-37 25 97 71 c147 107 418 313 502 382 104 84 123 94 73 36 -52
-61 -73 -90 -73 -101 0 -8 -3 -10 -7 -7 -8 9 -53 -32 -53 -49 0 -6 8 -18 17
-25 10 -8 14 -9 10 -2 -4 6 -3 14 3 18 6 4 8 9 6 13 -2 4 3 13 12 21 13 13 14
12 8 -13 -5 -20 -4 -26 5 -20 8 4 9 3 5 -5 -4 -6 -12 -9 -17 -5 -5 3 -9 2 -8
-3 4 -22 -2 -54 -9 -49 -5 3 -8 -9 -7 -27 1 -18 0 -36 -4 -42 -6 -10 -7 -15
-13 -52 -2 -12 -7 -26 -11 -29 -10 -10 -9 -42 2 -48 4 -3 6 7 4 22 -3 22 -2
23 5 8 8 -19 9 -19 14 2 4 12 7 26 8 30 1 4 9 16 18 26 9 11 12 16 6 13 -7 -4
-14 0 -18 8 -6 16 26 39 40 27 4 -4 0 7 -11 23 l-18 30 24 -20 23 -20 -19 30
c-15 25 -16 28 -2 16 21 -17 22 -3 2 19 -13 14 -13 17 0 17 8 0 12 -4 9 -8 -2
-4 0 -10 6 -14 5 -3 11 -1 11 4 5 42 4 58 -5 71 -6 8 -6 12 -2 8 5 -4 16 -2
24 5 13 10 14 9 7 -3 -5 -8 -10 -37 -11 -65 -2 -116 -253 -868 -440 -1315 -48
-115 -194 -408 -252 -507 -17 -29 -28 -53 -24 -53 13 0 178 103 339 211 87 58
210 140 273 182 165 108 315 231 478 393 78 78 142 137 142 131 0 -5 -31 -70
-70 -144 -134 -260 -294 -480 -483 -667 -97 -96 -118 -121 -81 -96 72 49 381
309 503 424 247 230 759 776 901 961 83 107 116 142 126 132 4 -3 -7 -23 -23
-44 -51 -66 -163 -233 -157 -233 4 0 25 16 47 36 50 45 200 117 462 222 293
117 494 179 740 226 185 36 445 66 570 66 69 0 87 3 92 16 3 8 1 20 -5 26 -6
6 -8 16 -6 23 3 7 0 16 -6 20 -8 5 -8 11 1 21 10 12 10 14 -1 12 -12 -3 -44
78 -70 181 -6 23 -13 41 -16 39 -3 -4 6 -44 61 -252 l13 -49 -52 7 c-225 29
-345 33 -522 15 -297 -29 -755 -155 -999 -275 l-109 -54 65 68 c90 91 254 298
332 418 149 228 398 705 490 939 93 237 221 637 242 760 4 22 12 46 18 53 5 7
9 37 9 67 0 30 1 55 3 55 2 0 14 -21 25 -47z m-1174 25 c3 -4 -1 -5 -10 -4 -8
1 -18 5 -22 8 -3 4 1 5 10 4 8 -1 18 -5 22 -8z m438 -25 c-11 -54 -36 -124
-41 -119 -6 6 35 146 42 146 3 0 3 -12 -1 -27z m227 -170 c13 -16 12 -17 -3
-4 -10 7 -18 15 -18 17 0 8 8 3 21 -13z m2960 -910 c13 -16 12 -17 -3 -4 -17
13 -22 21 -14 21 2 0 10 -8 17 -17z m34 -83 c3 -17 1 -19 -9 -11 -7 6 -15 9
-18 6 -2 -3 -5 2 -5 10 0 8 4 12 9 9 4 -3 8 0 8 7 0 19 10 5 15 -21z m50 -10
c0 -7 6 -15 14 -18 9 -3 11 0 6 8 -5 9 -4 11 3 6 9 -5 9 -13 1 -27 -6 -12 -7
-24 -3 -27 4 -4 9 -1 11 6 8 20 50 -33 119 -150 34 -57 108 -182 164 -278 116
-196 186 -304 240 -370 20 -25 45 -58 56 -75 l19 -30 -30 22 c-100 70 -321
379 -443 616 -27 54 -53 94 -57 88 -3 -6 -1 -11 6 -11 7 0 9 -3 6 -7 -4 -3 -3
-11 2 -17 9 -11 21 -55 23 -83 1 -7 4 -10 8 -8 4 3 15 -14 26 -36 18 -41 25
-79 15 -79 -11 1 -105 155 -105 172 0 9 -3 15 -7 13 -3 -3 -19 19 -34 47 -17
32 -22 49 -14 46 8 -3 13 -11 11 -17 -1 -7 2 -10 8 -6 7 4 7 11 2 18 -11 15
-9 62 4 79 17 22 10 43 -14 42 -12 -1 -22 4 -22 10 0 6 -5 4 -11 -4 -8 -12 -9
-10 -4 9 5 16 4 21 -4 17 -15 -10 -8 -72 8 -68 8 2 10 -4 6 -17 -3 -11 -1 -22
4 -26 7 -4 8 1 4 11 -4 12 -3 15 5 10 14 -8 16 -32 4 -40 -5 -3 -15 7 -23 22
-7 15 -22 40 -33 56 -11 16 -15 26 -8 22 7 -4 12 -1 12 8 0 9 0 18 0 21 0 3
-3 5 -7 4 -5 -1 -7 -6 -5 -12 2 -6 -4 -5 -12 2 -16 14 -12 36 5 26 8 -5 13 15
10 37 0 3 7 5 17 4 9 -2 17 -9 17 -16z m7 -102 c-7 -7 -12 -8 -12 -2 0 14 12
26 19 19 2 -3 -1 -11 -7 -17z m44 8 c-1 -6 -5 -17 -10 -25 -7 -10 -10 -11 -16
0 -5 6 -6 17 -4 24 6 15 32 15 30 1z m-6286 -416 c-28 -39 -115 -134 -167
-183 -25 -23 -40 -44 -36 -51 4 -6 8 -17 9 -24 2 -8 6 -17 10 -20 4 -4 4 1 1
10 -7 19 8 34 18 18 4 -6 11 -8 16 -5 5 3 6 -1 3 -9 -4 -11 0 -14 15 -11 12 2
19 0 16 -6 -4 -5 -11 -7 -16 -4 -5 4 -9 1 -9 -4 0 -6 7 -11 15 -11 8 0 15 -5
15 -10 0 -6 -13 -4 -30 5 -16 8 -32 15 -35 15 -3 0 -18 6 -35 15 -16 8 -38 15
-50 15 -32 0 -24 14 38 68 31 28 95 89 142 136 87 88 118 109 80 56z m1053
-205 c-3 -9 -8 -14 -10 -11 -3 3 -2 9 2 15 9 16 15 13 8 -4z m-50 -17 c-4 -7
-8 -16 -8 -20 0 -14 -15 -21 -15 -7 0 8 5 20 12 27 16 16 21 15 11 0z m104
-30 c-3 -8 -6 -5 -6 6 -1 11 2 17 5 13 3 -3 4 -12 1 -19z m5561 -53 c-3 -3 -9
2 -12 12 -6 14 -5 15 5 6 7 -7 10 -15 7 -18z m43 -36 c20 -29 20 -31 3 -27
-10 2 -18 9 -17 16 2 6 -3 9 -11 6 -7 -3 -19 2 -26 11 -7 9 -8 15 -2 15 6 0
13 -6 15 -12 3 -8 6 -6 6 5 1 24 6 22 32 -14z m-5708 -92 c-4 -7 -8 -15 -8
-19 0 -3 -3 -9 -7 -13 -5 -6 -4 19 2 35 1 3 2 9 1 13 -1 5 3 6 9 2 6 -3 7 -12
3 -18z m-1280 -47 c20 -11 46 -20 56 -20 50 0 31 -38 -106 -206 -94 -114 -199
-214 -293 -279 l-55 -37 -135 8 c-171 11 -349 8 -431 -7 -35 -6 -81 -13 -102
-14 -36 -3 -37 -2 -22 15 9 10 57 32 108 50 167 59 340 156 622 346 258 174
283 184 358 144z m-1589 -648 c-80 -73 -132 -107 -71 -47 20 20 37 40 37 45 0
5 11 12 25 16 14 3 22 11 18 17 -3 6 -1 7 5 3 7 -4 12 -2 12 5 0 7 3 9 7 5 5
-4 -10 -24 -33 -44z m1211 -384 c13 -32 -10 -18 -26 14 -9 19 -26 35 -40 39
-23 6 -23 6 11 21 l35 15 6 -36 c3 -20 9 -44 14 -53z m-102 45 c-11 -31 -34
-61 -49 -67 -13 -5 -14 0 -9 27 9 40 22 57 46 57 13 0 17 -5 12 -17z m681 -51
c25 -23 46 -74 46 -113 0 -41 -67 -109 -107 -109 -37 0 -113 80 -113 118 0 36
53 120 82 131 26 9 63 -2 92 -27z m-788 -17 c-7 -18 -26 -20 -26 -2 0 18 24
41 28 27 2 -6 1 -17 -2 -25z m6898 -221 c3 -8 2 -12 -4 -9 -6 3 -10 10 -10 16
0 14 7 11 14 -7z m20 -33 c3 -5 -2 -15 -12 -22 -15 -13 -16 -12 -4 3 10 13 10
17 0 21 -9 4 -9 6 -1 6 6 1 14 -3 17 -8z m11 -31 c-3 -5 -2 -10 4 -10 6 0 17
-13 25 -29 15 -28 14 -29 -5 -24 -14 4 -18 11 -13 25 4 13 2 18 -4 14 -11 -7
-24 18 -15 28 10 10 15 7 8 -4z m-8703 -442 c-3 -12 -1 -19 4 -15 6 3 10 -4
11 -16 1 -12 4 -33 7 -47 4 -14 8 -38 10 -55 2 -16 6 -37 10 -45 3 -8 7 -26 8
-40 2 -14 6 -27 9 -30 3 -3 16 -32 29 -65 29 -73 78 -153 136 -222 48 -56 149
-114 357 -202 62 -26 142 -63 179 -82 83 -42 87 -51 194 -363 25 -71 42 -131
40 -133 -7 -7 -268 73 -323 99 -128 58 -300 236 -436 449 -99 158 -240 426
-233 445 3 8 2 13 -3 9 -14 -8 -29 50 -36 135 -4 41 -8 85 -10 98 -2 12 0 22
4 22 5 0 7 16 6 36 -1 19 3 38 8 41 6 3 7 2 4 -3 -3 -6 -2 -16 4 -24 7 -12 9
-11 10 5 1 11 1 24 0 28 -1 5 3 6 8 3 5 -3 7 -16 3 -28z m7394 -374 c-5 -14
-4 -15 9 -4 20 16 19 12 -6 -39 -13 -28 -24 -40 -30 -34 -7 7 -7 19 0 34 5 13
12 32 15 42 3 9 8 17 12 17 3 0 3 -7 0 -16z m-752 -1500 c5 -13 9 -14 21 -4
12 10 15 9 15 -8 0 -11 -8 -26 -17 -33 -15 -11 -16 -11 -5 1 21 24 13 34 -10
14 -14 -12 -18 -13 -10 -3 17 22 3 32 -17 11 -9 -10 -13 -13 -8 -8 4 6 7 18 7
28 0 22 16 24 24 2z m88 -56 c-8 -8 -9 -4 -5 13 4 13 8 18 11 10 2 -7 -1 -18
-6 -23z m68 -14 c0 -7 -4 -15 -9 -18 -5 -4 -7 4 -4 16 5 23 5 23 -10 3 -14
-19 -15 -19 -10 8 4 22 8 25 19 16 8 -6 14 -17 14 -25z m481 -226 c11 -21 11
-22 -4 -9 -10 7 -17 17 -17 22 0 15 9 10 21 -13z m68 -21 c8 -10 7 -14 -4 -14
-8 0 -15 6 -15 14 0 7 2 13 4 13 2 0 9 -6 15 -13z m-12 -84 c0 -9 -4 -10 -14
-2 -7 6 -13 12 -13 14 0 1 6 2 13 2 8 0 14 -6 14 -14z m179 -40 c-8 -20 12
-55 26 -47 6 4 8 3 4 -4 -3 -6 -2 -13 3 -17 6 -3 8 4 5 17 -3 13 -6 31 -5 42
0 18 0 18 -14 0 -16 -21 -20 -8 -6 15 7 11 13 12 23 3 10 -8 13 -28 11 -64 -5
-76 -5 -75 -20 -75 -9 0 -10 4 -3 11 13 13 13 49 0 41 -6 -4 -8 -10 -5 -15 3
-4 -3 -14 -13 -21 -15 -12 -16 -12 -6 1 13 19 12 40 -1 39 -5 0 -8 -8 -7 -17
2 -9 1 -14 -3 -10 -4 4 -9 21 -10 38 -1 18 -7 36 -13 42 -7 7 -5 16 7 27 18
20 35 16 27 -6z m134 -114 c0 -6 -4 -7 -10 -4 -5 3 -10 11 -10 16 0 6 5 7 10
4 6 -3 10 -11 10 -16z m63 -52 c3 -8 -1 -14 -9 -14 -15 0 -18 9 -7 20 9 9 10
9 16 -6z m84 -64 c-4 -3 1 -16 10 -27 18 -21 18 -21 -4 -2 -20 16 -23 36 -6
36 4 0 3 -3 0 -7z m-72 -33 c10 -11 16 -20 13 -20 -3 0 -13 9 -23 20 -10 11
-16 20 -13 20 3 0 13 -9 23 -20z m-2249 -563 c0 -243 3 -287 17 -317 10 -19
15 -27 13 -18 -3 9 2 19 11 22 11 5 14 2 9 -11 -6 -17 -5 -17 7 -1 13 17 15
16 25 -5 10 -19 11 -19 9 -3 -1 11 -14 31 -29 45 -14 15 -30 37 -33 50 -7 22
-2 20 41 -16 27 -23 101 -73 164 -113 113 -70 194 -136 185 -151 -3 -4 -1 -9
5 -11 14 -5 30 -100 30 -185 0 -130 -33 -223 -144 -411 -114 -191 -205 -303
-425 -522 -309 -308 -664 -603 -877 -729 -169 -100 -248 -159 -392 -295 -123
-116 -166 -147 -190 -132 -5 3 -12 28 -15 56 -9 72 -39 132 -90 182 -106 101
-437 279 -887 478 -361 159 -413 183 -551 257 -139 73 -583 339 -606 362 -9 9
-19 16 -22 16 -3 0 -5 4 -3 8 1 5 -2 6 -8 2 -12 -7 -60 20 -73 42 -5 7 -12 11
-17 8 -4 -3 -6 5 -4 17 2 13 2 17 -2 11 -8 -18 -31 -16 -38 3 -3 8 -10 12 -16
9 -6 -3 -7 1 -4 10 6 14 9 13 21 -5 12 -16 18 -18 29 -9 7 6 11 16 7 23 -3 6
-2 7 3 3 9 -9 10 -11 13 -44 2 -16 3 -15 10 2 5 11 6 24 3 29 -3 5 -1 6 5 3 5
-3 8 -20 7 -36 -1 -17 2 -28 7 -25 5 3 7 10 4 15 -4 5 -3 14 0 19 9 15 35 -7
34 -29 0 -10 -4 -7 -10 8 -5 13 -12 21 -16 18 -9 -10 24 -54 41 -54 8 0 13 4
10 9 -3 4 0 8 6 8 8 0 8 6 0 23 l-11 22 18 -23 c15 -18 21 -20 32 -10 9 8 12
9 7 1 -3 -6 -2 -14 4 -18 5 -3 10 -12 10 -18 0 -8 -3 -8 -9 1 -7 11 -9 11 -14
-1 -4 -11 0 -15 13 -12 10 2 21 -2 23 -9 3 -7 18 -12 34 -11 15 1 31 -3 35 -9
4 -6 13 -11 20 -11 7 -1 12 -7 10 -15 -3 -10 3 -9 17 4 21 19 29 10 11 -12 -7
-9 -7 -9 2 -2 8 6 17 6 27 -2 13 -10 14 -10 3 2 -6 8 -12 19 -12 24 1 6 10 0
20 -13 11 -13 20 -17 20 -10 0 8 6 5 15 -7 15 -19 15 -19 8 1 -3 11 -3 17 2
13 4 -4 14 -3 22 3 18 15 17 4 -3 -29 -11 -18 -12 -22 -2 -10 8 10 19 14 23
10 5 -4 6 -2 2 3 -3 6 -2 17 4 25 6 11 9 11 10 3 3 -28 4 -32 12 -40 5 -4 7
-3 5 2 -2 6 2 11 7 12 6 1 9 -4 7 -12 -1 -7 2 -16 8 -20 6 -4 7 1 3 11 -5 13
-3 15 8 9 8 -5 7 -1 -4 12 -9 11 -14 22 -11 26 4 3 15 -4 26 -16 l20 -22 -16
25 c-9 13 -16 31 -16 40 1 10 5 8 13 -7 7 -12 17 -22 22 -23 6 -1 19 -9 30
-18 20 -17 20 -17 1 6 -11 12 -15 22 -11 22 5 0 4 5 -2 11 -12 12 -6 49 8 49
5 0 6 -7 3 -15 -4 -8 -1 -21 5 -29 6 -7 9 -15 6 -18 -3 -3 3 -11 12 -19 16
-12 17 -12 7 1 -6 8 -10 23 -9 33 2 9 -1 15 -6 11 -5 -3 -9 2 -9 11 0 9 4 14
9 10 5 -3 12 -1 16 5 7 12 25 4 25 -11 0 -6 -4 -8 -8 -5 -4 2 -8 -6 -8 -19 0
-22 9 -25 12 -4 1 5 3 12 4 17 5 12 8 26 9 45 0 10 5 16 10 13 4 -3 7 -17 5
-31 -2 -23 0 -24 14 -13 13 11 15 11 9 -4 -3 -10 -3 -20 2 -22 4 -3 7 12 7 32
0 20 4 37 9 37 6 0 10 -19 10 -42 -1 -23 2 -40 6 -37 3 2 6 14 5 26 -1 13 4
31 12 40 12 15 18 16 31 5 14 -10 14 -10 4 4 -7 9 -10 19 -6 22 3 4 1 7 -5 7
-7 0 -12 -5 -12 -11 0 -5 -5 -7 -10 -4 -8 5 -7 11 1 21 6 7 15 11 20 9 4 -3
15 7 24 22 16 27 16 27 10 3 -3 -14 -8 -33 -10 -42 -2 -10 1 -20 6 -24 6 -3 5
-12 -3 -22 -12 -15 -11 -16 5 -3 13 10 14 17 7 26 -7 9 -8 15 -1 19 6 4 7 14
4 24 -6 15 -5 15 10 3 13 -10 14 -17 7 -26 -8 -10 -7 -15 2 -21 7 -4 10 -4 6
1 -4 4 -3 14 3 22 6 7 8 13 4 13 -4 0 -2 7 5 15 7 9 10 18 6 22 -3 3 1 14 9
23 9 10 15 21 14 26 -1 5 0 18 1 29 2 17 3 16 10 -5 5 -16 2 -33 -7 -48 -8
-13 -12 -26 -9 -29 3 -4 0 -13 -7 -22 -10 -14 -10 -14 5 -3 10 8 14 20 11 29
-4 10 -2 14 4 10 10 -6 14 8 13 56 0 17 4 26 10 22 6 -3 8 -10 5 -15 -3 -5 -1
-11 5 -15 6 -4 7 -12 3 -18 -11 -18 -12 -36 -3 -42 5 -3 7 3 5 12 -1 10 4 26
13 35 12 15 18 16 31 6 12 -10 12 -8 -1 8 -19 22 -25 59 -8 49 6 -4 9 -3 8 2
-2 4 2 9 7 11 6 1 10 -6 10 -15 -1 -10 -6 -17 -13 -15 -17 3 -15 -2 7 -22 13
-12 21 -14 26 -6 3 6 3 10 -2 9 -20 -3 -25 2 -13 16 7 8 9 15 5 15 -5 0 0 9
11 21 10 12 18 23 17 25 -2 2 0 3 5 2 4 -2 6 -7 4 -11 -1 -5 2 -6 8 -2 7 4 9
-3 6 -20 -3 -15 -2 -25 1 -21 14 13 12 44 -2 56 -8 7 -12 16 -9 21 3 5 13 0
23 -12 15 -19 18 -19 30 -5 10 12 10 19 -3 38 -25 36 -19 46 8 13 13 -16 22
-34 19 -39 -4 -5 -1 -6 5 -2 6 3 8 23 6 44 -4 34 -4 35 10 17 8 -11 12 -23 9
-28 -2 -4 1 -6 8 -5 15 3 19 -22 7 -39 -6 -7 -4 -14 3 -19 7 -4 9 -3 5 4 -3 6
-2 13 4 17 6 4 8 10 5 15 -3 5 -1 12 5 15 7 5 8 11 1 19 -6 7 -6 17 -1 26 10
16 10 14 15 -45 1 -11 -3 -27 -9 -35 -9 -13 -8 -13 5 -3 19 15 33 5 18 -13 -7
-8 -6 -14 2 -20 7 -4 9 -3 5 4 -3 6 -2 13 4 17 6 4 8 10 5 15 -3 5 -1 11 5 15
6 4 8 10 5 15 -3 5 0 12 6 15 12 8 10 -43 -3 -61 -5 -7 -1 -17 9 -25 16 -12
17 -12 6 2 -7 9 -10 19 -6 23 4 4 9 19 11 34 2 15 7 31 12 36 6 6 8 -5 5 -26
-3 -24 0 -40 10 -48 8 -7 13 -16 10 -20 -3 -5 -1 -11 4 -14 5 -4 8 2 6 11 -1
10 0 23 4 28 3 6 6 18 6 28 0 9 4 17 10 17 8 0 12 -34 5 -42 -6 -8 -6 -56 1
-52 4 2 6 13 4 24 -4 21 19 45 34 36 5 -4 8 -15 6 -26 -2 -11 0 -22 5 -25 5
-3 7 3 5 15 -2 11 0 22 6 25 9 6 10 2 13 -44 0 -11 7 -26 15 -33 12 -11 12
-10 5 2 -15 26 -14 77 1 90 17 14 20 -1 4 -17 -8 -8 -8 -13 0 -18 6 -3 10 -3
9 2 -2 4 2 9 7 11 6 1 10 -6 10 -15 -1 -10 -6 -17 -11 -16 -6 1 -11 -5 -11
-14 0 -11 11 -4 33 20 37 39 57 38 22 -2 -20 -22 -20 -23 -2 -8 11 9 24 14 28
10 4 -5 6 -1 4 7 -2 8 2 14 9 13 9 -2 10 4 2 23 -12 34 -3 45 11 13 8 -20 9
-17 5 16 -4 27 -2 36 5 29 5 -5 11 -22 12 -37 1 -16 12 -36 23 -45 20 -17 20
-17 2 4 -16 20 -16 22 2 38 15 14 17 24 11 47 -5 17 -5 31 1 34 9 6 13 -7 10
-32 -1 -6 3 -15 9 -18 8 -5 4 -16 -12 -33 -18 -21 -19 -23 -2 -10 16 14 23 15
34 5 12 -10 12 -9 4 3 -9 14 -11 29 -4 48 2 4 3 14 4 22 1 18 21 16 22 -2 0
-7 -4 -19 -10 -26 -5 -7 -5 -12 0 -10 5 2 9 -1 9 -7 0 -5 -4 -9 -9 -7 -5 2 -4
-4 4 -12 14 -17 25 -22 15 -7 -3 5 -1 13 5 16 7 4 8 11 1 18 -16 21 -16 24 1
43 9 11 17 22 17 27 1 11 16 9 17 -3 1 -5 3 -12 4 -15 1 -3 3 -9 4 -14 0 -5 4
-12 8 -16 3 -4 5 0 4 9 -1 8 -5 19 -9 22 -4 4 -2 13 3 20 6 6 9 16 8 20 -2 5
2 10 7 11 6 1 9 -4 7 -12 -1 -7 2 -16 8 -20 6 -4 7 1 3 12 -6 16 -5 17 13 3
13 -10 12 -7 -4 12 -14 15 -19 28 -13 32 5 4 10 14 10 24 1 9 3 33 7 53 3 21
2 39 -4 43 -7 4 -9 -7 -7 -31 4 -35 4 -36 -4 -8 l-9 30 -2 -30 c-2 -24 -4 -26
-7 -8 -2 12 0 31 6 41 6 11 7 22 4 26 -11 11 -31 -48 -23 -69 10 -27 1 -53
-11 -34 -7 12 -9 11 -9 -1 0 -13 -2 -13 -11 0 -9 13 -10 12 -5 -3 4 -12 2 -16
-6 -11 -7 4 -8 3 -4 -5 5 -7 2 -10 -6 -9 -8 2 -14 -9 -16 -32 -2 -19 -7 -39
-12 -44 -5 -5 -7 9 -5 30 2 35 2 36 -5 9 l-7 -30 -2 32 c0 17 -5 34 -10 38 -6
3 -8 -9 -7 -27 2 -18 1 -22 -1 -9 -4 18 -7 21 -13 11 -5 -8 -4 -22 2 -33 8
-15 7 -18 -3 -12 -8 6 -10 4 -4 -5 5 -8 4 -11 -3 -6 -6 3 -13 2 -17 -4 -4 -6
-11 -7 -17 -4 -7 5 -8 2 -3 -6 5 -8 4 -11 -3 -6 -6 3 -13 2 -17 -4 -4 -6 -11
-7 -17 -4 -6 4 -8 3 -5 -2 3 -6 2 -16 -4 -24 -7 -13 -9 -13 -9 0 0 13 -1 13
-10 0 -8 -13 -10 -13 -10 -1 0 11 -4 10 -13 -4 -9 -11 -19 -15 -27 -10 -8 5
-11 4 -6 -3 7 -12 -12 -11 -33 2 -10 7 -12 6 -6 -4 5 -9 4 -11 -4 -6 -6 4 -8
12 -5 18 4 7 2 8 -5 4 -6 -4 -14 0 -17 9 -6 14 -8 14 -20 -2 -13 -17 -14 -17
-8 0 4 10 1 17 -6 17 -6 0 -9 -4 -5 -9 3 -5 0 -13 -6 -17 -8 -5 -9 -3 -4 7 8
12 6 12 -8 0 -9 -7 -17 -9 -17 -3 0 5 7 13 16 16 8 3 12 11 9 17 -5 6 -12 4
-21 -8 -10 -13 -13 -14 -11 -3 2 8 2 11 -1 7 -2 -4 -10 -3 -18 4 -11 9 -14 8
-14 -2 0 -11 -3 -11 -11 1 -8 12 -9 10 -4 -9 5 -16 4 -21 -4 -17 -6 4 -11 13
-11 20 0 8 -8 20 -17 27 -14 12 -16 12 -9 -1 4 -8 0 -6 -10 5 l-17 20 7 -20 6
-20 -16 20 c-11 13 -15 14 -11 4 4 -12 -2 -15 -28 -14 -19 0 -37 4 -41 8 -4 4
-14 1 -22 -6 -13 -10 -14 -9 -7 3 8 13 7 13 -10 0 -15 -12 -17 -12 -10 -1 6
11 5 12 -6 5 -8 -5 -18 -9 -24 -9 -5 0 -15 -11 -22 -25 -11 -21 -13 -22 -13
-6 0 11 -3 17 -6 13 -3 -3 0 -22 7 -41 10 -29 10 -39 1 -48 -10 -10 -12 -8
-11 7 1 11 1 29 0 40 l-2 20 -9 -20 c-9 -20 -9 -20 -9 0 -1 15 -6 11 -20 -15
-10 -19 -28 -53 -40 -75 -14 -27 -21 -34 -21 -20 0 16 -2 17 -10 5 -6 -9 -5
-17 2 -21 7 -4 7 -9 -1 -13 -6 -4 -11 -1 -11 6 0 9 -3 9 -10 -2 -8 -12 -10
-12 -10 -1 0 8 -3 12 -6 9 -3 -4 0 -17 7 -30 7 -12 12 -27 11 -31 -1 -5 3 -5
9 -1 7 4 10 2 8 -5 -8 -24 -22 -16 -34 19 -8 22 -14 30 -17 20 -3 -8 -3 -4 -1
10 5 29 -12 16 -20 -15 -4 -18 -5 -17 -6 3 0 13 -6 20 -11 17 -7 -4 -6 -14 1
-28 10 -21 10 -21 -5 -3 -14 17 -16 18 -16 3 0 -9 5 -17 10 -17 6 0 10 -8 10
-17 0 -16 -2 -16 -11 -3 -9 13 -10 12 -5 -2 3 -10 0 -20 -5 -24 -7 -4 -10 3
-9 17 4 49 -3 62 -10 19 l-7 -45 -1 42 c-1 23 3 45 8 48 8 5 7 11 -1 21 -10
13 -14 12 -30 -2 -10 -9 -16 -21 -13 -26 3 -5 13 -1 21 9 8 10 11 11 7 3 -4
-7 -7 -32 -7 -55 0 -32 -1 -34 -4 -8 -4 30 -33 69 -33 45 0 -6 4 -13 9 -16 5
-3 11 -19 13 -34 4 -27 2 -29 -24 -27 -15 1 -27 0 -26 -4 0 -3 0 -15 -2 -26
l-1 -20 -9 20 -9 20 -1 -20 -1 -20 -9 20 c-6 13 -9 15 -9 5 -1 -13 -3 -13 -12
0 -9 13 -10 13 -6 -2 4 -12 1 -16 -13 -13 -11 2 -22 -1 -26 -7 -4 -7 -10 -5
-16 3 -7 10 -8 9 -3 -6 3 -11 3 -16 -1 -12 -4 4 -14 1 -22 -6 -13 -10 -15 -9
-8 3 4 8 1 7 -7 -3 -8 -10 -17 -14 -19 -10 -3 4 -4 3 -2 -4 1 -6 -5 -10 -14
-8 -9 1 -21 0 -27 -4 -5 -3 -16 -6 -24 -8 -10 -1 -11 1 -2 10 6 6 11 18 11 26
-1 11 -6 7 -16 -9 -15 -25 -15 -25 -8 -1 4 16 3 21 -5 17 -6 -4 -11 -15 -11
-24 0 -13 -2 -13 -16 4 -11 13 -14 14 -11 3 3 -9 -1 -16 -8 -16 -7 0 -11 7 -8
16 4 12 1 12 -10 -2 -15 -18 -15 -18 -22 2 -3 11 -2 28 3 38 5 10 8 26 7 35
-2 10 0 20 5 23 4 3 6 -11 4 -30 -2 -24 1 -33 8 -29 6 4 8 3 4 -4 -3 -6 -2
-13 3 -16 10 -7 23 19 13 28 -12 12 -10 33 4 33 10 0 11 -4 3 -13 -6 -8 -6
-14 0 -18 5 -3 11 -3 14 1 2 5 2 3 1 -4 -2 -7 1 -15 6 -18 6 -4 10 2 11 12 0
16 1 16 9 -2 10 -23 12 -19 19 48 1 6 9 0 19 -16 10 -15 22 -24 25 -20 4 3 1
13 -7 22 -8 9 -16 21 -18 26 -2 6 -7 9 -11 7 -5 -1 -6 2 -2 8 5 8 11 8 19 1 7
-6 17 -7 22 -3 4 4 3 0 -4 -9 -10 -13 -9 -19 5 -30 15 -12 16 -12 11 2 -3 9
-2 22 3 30 8 12 10 12 8 -1 -3 -28 1 -41 10 -36 5 3 7 16 5 29 l-5 22 10 -22
c6 -13 13 -23 16 -23 7 0 1 32 -8 47 -4 6 -3 15 3 18 6 4 10 3 9 -2 -1 -4 0
-11 1 -15 4 -12 7 -27 10 -40 1 -7 7 5 15 27 7 22 13 33 14 25 0 -8 -6 -32
-13 -52 -8 -21 -10 -38 -5 -38 8 0 24 40 21 53 -1 5 3 5 9 1 9 -5 10 -2 6 10
-4 9 -3 15 2 11 6 -3 14 2 19 11 9 15 10 15 17 -5 3 -11 11 -19 16 -15 6 4 6
11 -2 20 -6 8 -9 17 -5 21 3 3 6 1 6 -6 0 -7 5 -9 12 -5 6 4 8 3 4 -4 -3 -6
-2 -13 4 -17 9 -6 14 7 11 31 -1 6 6 17 14 24 11 9 12 16 5 25 -8 9 -8 15 0
20 6 4 9 3 8 -2 -2 -4 2 -8 7 -8 6 0 9 4 7 10 -2 5 5 1 16 -8 19 -17 20 -17
41 9 11 15 21 22 21 16 0 -6 -5 -14 -10 -17 -6 -4 -7 -11 -4 -17 4 -6 12 -1
20 13 7 13 9 28 6 34 -9 13 -12 38 -4 31 9 -9 52 36 45 47 -3 6 -1 7 6 3 6 -4
9 -11 6 -16 -3 -4 2 -13 10 -20 13 -11 15 -10 12 6 -2 11 -9 32 -16 48 -6 16
-9 31 -7 34 3 2 8 -8 12 -22 6 -25 17 -27 20 -5 1 5 3 11 4 14 7 14 5 32 -4
45 -9 13 -9 13 6 2 13 -10 17 -37 8 -49 -2 -2 -3 -7 -4 -12 0 -5 -4 -13 -8
-17 -9 -8 -1 -24 13 -24 6 0 8 3 6 8 -3 4 1 21 8 37 7 17 14 24 14 17 1 -7 6
-10 11 -7 6 4 8 10 5 15 -3 5 -1 11 4 15 5 3 8 14 6 25 -2 11 1 22 6 26 7 4 6
10 0 18 -8 9 -7 13 4 13 8 0 12 -4 9 -8 -2 -4 0 -10 6 -14 9 -6 15 8 11 29 -1
4 3 14 9 21 8 10 8 15 0 20 -8 5 -7 12 2 23 13 15 14 23 9 50 -1 4 -6 0 -12
-8 -7 -10 -9 -11 -7 -2 2 8 8 14 13 14 6 0 15 4 22 9 10 9 11 -3 4 -28 -1 -2
0 -5 2 -7 1 -2 -6 -13 -16 -23 -9 -11 -14 -23 -10 -27 11 -10 12 -37 2 -30 -5
3 -9 1 -9 -5 0 -16 18 -22 27 -9 10 17 11 31 1 44 -5 7 -2 17 7 24 8 7 12 17
8 23 -4 6 -1 7 6 3 9 -6 9 -12 -3 -25 -15 -16 -14 -19 8 -40 15 -14 22 -29 19
-39 -4 -10 -2 -13 5 -8 17 11 15 27 -8 51 -19 20 -19 23 -5 35 14 12 14 15 0
30 -13 15 -14 19 -1 29 12 10 14 9 11 -6 -1 -10 2 -23 6 -29 6 -7 3 -16 -6
-24 -14 -12 -13 -16 6 -36 12 -13 19 -30 16 -38 -4 -9 -2 -18 3 -21 6 -4 11
-1 11 4 1 6 2 17 3 24 1 6 -6 22 -17 33 -14 17 -15 24 -6 29 7 5 10 4 6 -2 -4
-6 2 -18 13 -28 21 -19 28 -7 8 13 -7 7 -8 12 -4 12 5 0 3 7 -4 16 -11 12 -11
15 1 12 8 -2 13 3 11 10 -1 8 2 11 8 7 7 -4 7 -12 2 -18 -10 -14 -10 -27 2
-45 4 -7 3 -19 -4 -27 -6 -8 -7 -16 -2 -19 6 -3 13 1 16 10 5 14 9 14 23 3 15
-12 16 -12 10 3 -3 10 -3 20 2 22 4 3 8 -9 8 -27 1 -55 3 -71 9 -64 4 4 7 29
8 56 1 27 4 52 7 56 4 3 5 -16 2 -44 -2 -29 0 -52 7 -56 7 -4 9 2 6 19 -3 14
0 28 5 32 5 3 8 0 7 -7 -2 -7 6 -13 17 -13 11 0 19 6 17 13 -1 7 2 9 9 6 7 -5
7 -11 1 -17 -13 -13 -4 -40 11 -31 5 3 7 1 3 -5 -3 -6 -2 -13 4 -17 5 -3 11
-1 11 4 3 26 4 30 11 37 10 10 2 -30 -11 -55 -7 -13 -8 -22 -1 -26 5 -3 11 2
11 12 1 17 2 17 6 0 2 -9 9 -15 14 -12 5 4 5 13 0 24 -7 13 -6 18 4 18 8 0 11
-7 7 -16 -5 -14 -4 -14 14 -1 13 10 15 10 7 0 -13 -15 0 -50 19 -50 7 0 7 5
-2 14 -9 11 -9 19 0 33 9 15 10 14 4 -7 -3 -14 -3 -22 1 -18 5 4 14 3 22 -3
16 -14 17 3 1 19 -7 7 -8 12 -4 12 5 0 3 6 -3 14 -8 10 -9 16 -1 21 6 4 10 3
9 -2 -1 -4 0 -11 1 -15 1 -5 3 -11 5 -15 7 -27 18 -42 27 -37 5 3 5 11 -2 19
-6 7 -10 17 -9 21 1 5 0 11 -1 14 -5 13 -6 60 -1 54 3 -3 6 -14 6 -25 0 -10 5
-18 10 -16 6 1 9 6 7 10 -1 5 2 5 8 2 8 -5 6 -13 -4 -24 -26 -28 -18 -37 9
-11 l25 24 -20 21 c-20 21 -20 23 -3 36 15 11 16 11 6 -1 -17 -19 3 -45 22
-30 9 8 15 8 20 0 4 -6 3 -9 -2 -8 -4 2 -9 0 -10 -4 -2 -5 0 -8 5 -9 4 0 13
-5 20 -11 9 -8 12 -6 9 10 -2 12 -6 25 -10 28 -4 4 -7 12 -7 18 0 5 6 2 13 -9
9 -11 16 -14 21 -7 3 6 2 13 -4 17 -5 3 -10 12 -10 18 0 7 5 4 11 -6 6 -9 15
-15 20 -11 6 4 3 14 -8 26 -9 11 -13 19 -8 18 21 -5 27 1 16 14 -9 10 -7 17 6
27 16 13 17 12 5 -3 -9 -11 -10 -18 -2 -23 8 -5 8 -10 0 -20 -8 -9 -8 -15 0
-20 6 -3 8 -10 5 -14 -2 -5 2 -17 10 -27 13 -18 14 -18 11 6 -1 14 -6 32 -11
40 -8 13 -6 13 8 1 15 -12 18 -10 28 15 7 16 11 36 10 44 -2 8 0 12 4 8 6 -5
8 -14 14 -48 1 -3 5 2 11 10 6 9 5 20 -3 30 -10 13 -10 13 5 2 10 -8 14 -20
11 -30 -6 -15 -5 -15 10 -3 16 12 16 16 3 30 -11 12 -12 21 -5 31 8 13 9 12 7
-2 -2 -9 2 -17 7 -17 15 -1 13 22 -3 41 -11 13 -11 17 0 24 7 4 10 4 6 -1 -4
-4 -3 -14 3 -22 9 -11 15 -11 28 -1 10 8 9 5 -3 -10 -11 -12 -16 -22 -11 -22
4 0 2 -6 -4 -14 -7 -9 -8 -17 -2 -20 5 -3 14 6 19 22 6 15 17 36 27 47 16 20
16 20 6 -2 -6 -12 -7 -24 -2 -27 5 -3 11 4 14 15 7 28 27 15 28 -19 l1 -27 7
25 c4 14 3 31 -2 38 -5 7 -7 15 -3 19 3 3 6 1 6 -6 0 -7 5 -9 10 -6 6 4 7 12
3 18 -12 20 -12 37 0 34 7 -1 11 4 9 11 -1 8 2 11 8 7 8 -5 6 -13 -5 -25 -10
-11 -12 -20 -6 -24 5 -4 14 2 20 11 6 10 11 13 11 7 0 -6 -9 -19 -20 -29 -11
-10 -17 -22 -14 -27 5 -8 49 39 49 53 0 4 3 10 7 14 8 9 5 -16 -5 -32 -4 -6
-3 -14 2 -17 11 -7 26 30 23 59 l-2 20 9 -20 c5 -12 4 -28 -1 -38 -5 -10 -7
-21 -5 -24 5 -5 41 54 42 69 0 3 4 10 8 15 5 4 8 4 6 -2 -1 -5 1 -18 6 -28 6
-14 10 -16 16 -6 4 7 5 18 1 24 -9 14 -12 38 -4 30 4 -4 7 -11 7 -16 0 -12 20
-12 21 1 1 6 3 13 4 18 1 4 2 11 1 15 -1 5 3 6 9 2 7 -4 7 -12 2 -18 -11 -15
-9 -27 6 -52 11 -18 12 -17 8 11 -2 17 0 38 5 45 6 10 8 7 7 -11 -2 -43 2 -61
10 -56 5 3 8 21 7 41 -2 28 0 33 12 24 10 -9 11 -15 2 -26 -16 -19 -8 -24 14
-9 16 13 16 15 -3 39 -13 16 -17 28 -10 32 6 4 9 1 8 -7 -2 -7 3 -12 10 -10 6
1 11 -1 11 -5 -3 -20 2 -34 10 -28 6 3 8 14 6 25 -2 11 -1 19 3 19 20 -3 23 3
11 19 -12 15 -12 16 2 5 9 -7 19 -9 23 -5 4 4 7 3 6 -3 -4 -18 0 -26 10 -20 7
4 6 14 -1 28 -9 20 -9 20 4 5 8 -10 17 -15 21 -11 3 3 -2 16 -11 27 -14 16
-14 18 -2 8 13 -10 19 -9 32 6 13 14 14 21 5 30 -7 7 -10 12 -7 12 3 0 14 -9
25 -21 14 -15 15 -20 4 -17 -8 2 -14 -3 -12 -10 1 -8 -2 -11 -7 -8 -5 4 -12 2
-15 -3 -11 -17 12 -22 28 -5 12 12 16 12 17 2 0 -7 4 -4 9 7 5 14 2 26 -14 43
-15 17 -17 23 -6 20 8 -2 14 3 12 10 -1 8 2 11 8 7 5 -3 11 -1 11 4 3 26 4 30
11 37 7 6 5 -17 -4 -41 -1 -5 2 -11 7 -12 6 -2 10 1 10 6 0 5 3 12 7 16 4 4 4
14 1 23 -4 15 -3 15 6 2 10 -15 12 -13 15 12 0 6 7 12 14 14 7 1 8 0 2 -3 -5
-2 -7 -9 -4 -14 3 -6 11 -6 20 2 7 6 12 15 9 18 -2 4 2 8 10 8 11 0 12 -4 4
-14 -8 -9 -8 -13 -1 -13 6 0 16 8 21 19 7 12 19 17 37 15 15 -1 37 1 50 6 15
6 26 5 30 -2 4 -7 3 -8 -5 -4 -6 4 -14 0 -17 -9 -6 -13 -8 -14 -15 -3 -6 9 -9
9 -9 1 0 -6 -9 -10 -20 -8 -14 3 -18 0 -15 -8 4 -7 -1 -3 -10 8 -15 19 -16 19
-11 -15 3 -19 2 -29 -1 -21 -5 11 -7 11 -14 0 -6 -10 -9 -11 -9 -1 0 6 -4 12
-9 12 -6 0 -8 -9 -6 -20 2 -11 -1 -23 -7 -26 -7 -5 -9 0 -6 13 3 12 0 20 -7
20 -7 0 -11 -9 -8 -21 3 -20 3 -21 -6 -1 -7 15 -10 16 -10 5 -1 -9 4 -21 10
-27 13 -13 3 -36 -12 -28 -5 4 -9 1 -9 -4 0 -6 5 -11 10 -11 6 0 10 -5 10 -11
0 -8 -6 -7 -17 2 -14 12 -16 12 -8 0 5 -9 4 -12 -3 -7 -7 4 -10 -1 -7 -14 3
-13 0 -18 -7 -14 -7 5 -8 2 -3 -6 6 -9 4 -11 -6 -5 -12 8 -12 6 0 -8 8 -10 11
-20 8 -24 -4 -3 -9 1 -13 10 -5 15 -9 14 -26 -6 -11 -12 -16 -16 -12 -8 5 9 3
12 -5 7 -6 -4 -9 -12 -5 -17 3 -5 0 -8 -8 -7 -9 2 -13 -11 -13 -49 -1 -29 2
-50 5 -47 3 3 5 10 5 15 0 5 5 9 10 9 6 0 10 -4 10 -9 0 -5 3 -12 7 -16 3 -4
5 1 3 12 -2 10 -4 18 -5 18 -1 0 -3 16 -5 35 -4 35 -4 35 9 10 8 -14 12 -28
10 -32 -2 -3 0 -9 6 -13 6 -4 7 -11 4 -17 -5 -7 -2 -8 5 -3 9 5 10 10 2 18 -7
7 -7 15 2 26 9 12 9 13 0 7 -7 -4 -13 -3 -13 2 0 17 13 22 27 11 9 -8 10 -15
3 -24 -8 -10 -8 -15 1 -21 7 -4 9 -3 5 4 -3 6 -2 14 4 17 7 4 8 11 1 18 -10
13 10 49 26 48 4 -1 8 17 9 39 1 44 13 68 15 29 1 -13 1 -28 -1 -34 -1 -5 8
-1 19 9 11 10 19 21 18 25 -1 3 3 7 8 9 6 1 10 -2 10 -7 0 -5 3 -13 8 -17 4
-4 -3 -19 -15 -33 l-23 -26 27 24 c15 13 24 29 20 35 -10 16 -10 48 1 69 7 15
11 16 23 7 7 -7 12 -16 9 -20 -3 -5 -2 -11 3 -14 4 -2 8 6 8 19 0 13 -2 23 -6
22 -3 -1 -5 3 -5 8 0 6 3 9 7 8 4 -2 4 5 1 15 -6 15 -5 15 10 3 9 -7 14 -18
10 -24 -4 -6 -1 -7 6 -3 9 6 8 13 -5 27 -9 10 -21 16 -25 13 -11 -6 -12 10 -2
19 4 4 20 -5 36 -20 17 -16 27 -23 23 -16 -3 6 -2 14 4 18 6 4 7 12 0 24 -17
32 10 44 39 19 14 -13 20 -16 14 -8 -10 11 -9 18 5 34 12 14 13 17 2 10 -8 -5
-22 -9 -30 -9 -8 0 -21 -4 -27 -8 -7 -5 -13 -4 -13 2 0 8 31 24 50 26 3 0 26
10 50 22 25 12 104 50 175 85 206 99 772 425 985 567 41 27 77 50 80 50 3 1 5
-126 6 -282z m2643 260 c0 -9 -2 -8 -6 1 -2 6 -10 9 -15 6 -7 -4 -8 -2 -4 5 9
13 26 5 25 -12z m-9835 1 c-70 -116 -180 -242 -338 -387 l-29 -26 28 38 c15
20 31 37 36 37 5 0 8 6 7 13 -2 6 3 11 10 9 6 -1 11 1 10 5 -1 5 37 47 84 95
48 48 110 119 139 158 47 63 73 91 53 58z m9996 -136 c0 -15 -2 -15 -10 -2
-13 20 -13 33 0 25 6 -3 10 -14 10 -23z m57 -44 c-3 -8 -6 -5 -6 6 -1 11 2 17
5 13 3 -3 4 -12 1 -19z m193 -109 c0 23 12 4 15 -24 2 -14 -1 -23 -5 -20 -5 3
-6 13 -3 23 6 14 4 15 -8 5 -12 -10 -15 -8 -16 10 -2 17 0 19 7 7 8 -12 10
-13 10 -1z m120 -64 c0 4 6 2 14 -4 15 -12 18 -54 4 -45 -4 3 -4 12 -1 21 4
10 2 14 -4 10 -6 -4 -19 3 -29 16 -16 18 -16 19 -1 8 9 -7 17 -10 17 -6z m56
-51 c1 -9 0 -13 -4 -10 -3 4 -7 14 -8 22 -1 9 0 13 4 10 3 -4 7 -14 8 -22z
m450 -69 c1 -8 -5 -20 -14 -27 -13 -11 -14 -11 -7 2 13 20 15 40 5 40 -6 0
-19 -26 -24 -52 -3 -14 -14 -19 -12 -4 1 8 5 19 9 22 4 4 7 14 7 23 0 10 -6 8
-17 -9 -10 -14 -17 -29 -15 -33 1 -5 -2 -6 -8 -2 -6 3 -8 11 -5 16 10 15 -7
10 -29 -8 -16 -14 -18 -14 -8 -2 17 22 2 33 -15 11 -9 -10 -12 -11 -7 -2 17
36 25 40 49 24 22 -14 24 -14 34 5 8 13 8 22 1 26 -6 4 -8 11 -4 16 7 12 57
-27 60 -46z m-155 -4 c5 8 9 9 9 3 0 -6 -6 -16 -13 -22 -10 -8 -13 -6 -14 11
0 12 1 16 4 8 5 -11 7 -11 14 0z m-6396 -180 c3 -5 2 -12 -3 -15 -5 -3 -9 1
-9 9 0 17 3 19 12 6z m1529 -133 c-9 -15 -33 12 -27 29 5 14 8 14 19 -2 7 -10
11 -22 8 -27z m-69 -1 c0 -12 -10 -35 -22 -51 -13 -16 -20 -33 -16 -39 3 -5 1
-7 -4 -4 -6 4 -16 0 -23 -8 -7 -8 -9 -15 -6 -15 4 0 4 -6 0 -12 -6 -9 -10 -5
-14 12 -4 14 -13 24 -20 22 -11 -3 -11 0 -1 12 7 8 9 21 5 27 -4 7 -3 9 3 6
12 -7 36 16 27 26 -3 3 1 4 10 3 9 -1 15 -6 14 -12 -2 -5 -7 -8 -11 -6 -5 1
-5 -3 -1 -9 5 -8 3 -9 -6 -4 -9 6 -11 4 -5 -5 5 -8 4 -11 -1 -7 -5 3 -10 -3
-10 -14 0 -18 2 -18 12 -5 6 9 15 12 19 8 5 -4 5 -2 2 4 -4 7 0 17 7 23 8 7
13 23 11 36 -1 14 1 22 6 20 4 -3 10 -1 14 5 9 15 11 13 10 -13z m-2475 -11
c0 -2 -7 -7 -16 -10 -8 -3 -12 -2 -9 4 6 10 25 14 25 6z m2225 -65 c3 -5 2
-12 -3 -15 -5 -3 -9 1 -9 9 0 17 3 19 12 6z m133 -81 c-1 -16 -5 -27 -9 -24
-4 2 -13 -5 -20 -17 -8 -15 -13 -18 -19 -10 -5 9 -9 8 -14 -5 -6 -15 -9 -16
-16 -4 -13 21 8 44 26 29 8 -6 15 -8 16 -3 2 12 5 28 8 37 2 7 6 21 9 33 0 3
5 3 10 -1 5 -3 9 -19 9 -35z m-5462 18 c4 -6 3 -8 -4 -4 -6 3 -13 2 -17 -4 -4
-6 -53 -9 -123 -9 l-117 2 99 8 c54 4 103 10 110 13 21 8 45 6 52 -6z m4191
-13 c0 -8 -4 -12 -9 -9 -5 3 -6 10 -3 15 9 13 12 11 12 -6z m863 -51 c0 -8
-19 -13 -24 -6 -3 5 1 9 9 9 8 0 15 -2 15 -3z m302 -56 c-5 -5 -9 5 -10 24 0
31 1 31 9 9 6 -14 6 -28 1 -33z m-467 3 c3 -5 2 -12 -3 -15 -5 -3 -9 1 -9 9 0
17 3 19 12 6z m-50 -20 c3 -5 2 -12 -3 -15 -5 -3 -9 1 -9 9 0 17 3 19 12 6z
m-771 -9 c3 -5 -1 -9 -9 -9 -8 0 -12 4 -9 9 3 4 7 8 9 8 2 0 6 -4 9 -8z m707
-45 c-10 -9 -11 -8 -5 6 3 10 9 15 12 12 3 -3 0 -11 -7 -18z m-731 -3 c0 -8
-19 -13 -24 -6 -3 5 1 9 9 9 8 0 15 -2 15 -3z m685 -33 c-2 -9 -4 -18 -5 -21
-1 -3 -2 -9 -1 -13 1 -5 -3 -6 -9 -2 -8 5 -8 11 -1 19 7 8 7 16 0 23 -6 6 -5
10 5 10 7 0 12 -7 11 -16z m-691 -12 c-3 -5 -10 -7 -15 -3 -5 3 -7 10 -3 15 3
5 10 7 15 3 5 -3 7 -10 3 -15z m253 6 c0 -8 -4 -12 -9 -9 -5 3 -6 10 -3 15 9
13 12 11 12 -6z m-297 -1 c0 -8 -19 -13 -24 -6 -3 5 1 9 9 9 8 0 15 -2 15 -3z
m270 1 c0 -2 -6 -8 -13 -14 -10 -8 -14 -7 -14 2 0 8 6 14 14 14 7 0 13 -1 13
-2z m-190 -20 c0 -2 -6 -8 -13 -14 -10 -8 -14 -7 -14 2 0 8 6 14 14 14 7 0 13
-1 13 -2z m200 1 c0 -2 -8 -10 -17 -17 -16 -13 -17 -12 -4 4 13 16 21 21 21
13z m-266 -37 c-3 -5 -10 -7 -15 -3 -5 3 -7 10 -3 15 3 5 10 7 15 3 5 -3 7
-10 3 -15z m76 17 c0 -2 -8 -10 -17 -17 -16 -13 -17 -12 -4 4 13 16 21 21 21
13z m-50 -31 c-8 -9 -8 -15 0 -20 6 -4 7 -13 1 -23 -4 -9 -6 -22 -4 -29 2 -6
-1 -14 -6 -18 -7 -4 -8 0 -4 11 4 11 3 15 -5 10 -6 -3 -14 -1 -18 5 -4 8 -3 9
4 5 6 -3 16 2 22 13 7 14 7 22 0 26 -8 5 -8 11 -1 19 6 7 7 17 3 21 -4 5 -1 5
6 1 10 -6 10 -11 2 -21z m838 0 c0 -13 -9 -32 -19 -41 -10 -9 -15 -23 -12 -32
5 -10 3 -13 -6 -8 -7 5 -10 14 -8 20 3 7 1 19 -5 27 -8 11 -9 11 -5 -2 3 -9
-2 -27 -11 -40 -9 -13 -16 -25 -14 -26 1 -2 0 -3 -3 -3 -3 0 -5 2 -5 5 0 3 1
22 1 43 1 37 1 37 9 7 7 -29 8 -29 9 -4 1 27 23 54 34 43 3 -3 10 4 17 15 14
27 18 26 18 -4z m-358 -19 c0 -2 -8 -10 -17 -17 -16 -13 -17 -12 -4 4 13 16
21 21 21 13z m236 -99 c2 -14 -1 -29 -8 -33 -7 -5 -9 -2 -6 8 4 8 2 21 -2 28
-5 8 -6 18 -3 23 7 12 13 4 19 -26z m-533 0 c4 3 7 1 7 -5 0 -5 3 -19 6 -29 4
-11 -3 -7 -18 11 -30 36 -49 19 -23 -21 11 -17 14 -28 7 -35 -7 -7 -14 -3 -21
11 -7 12 -9 21 -5 21 3 0 1 6 -5 13 -6 8 -10 16 -8 18 1 2 -2 1 -7 -3 -5 -4
-17 -2 -25 4 -9 7 -13 8 -9 4 4 -5 4 -14 -1 -20 -5 -6 -5 -20 0 -31 7 -18 8
-18 8 -2 1 10 6 15 11 12 6 -4 10 -3 9 2 -3 17 1 24 12 17 7 -4 1 -16 -16 -34
-15 -16 -27 -31 -26 -34 1 -3 -2 -6 -6 -6 -9 0 -11 61 -2 86 6 17 15 21 38 19
17 -1 34 2 37 7 3 5 11 5 18 -1 7 -6 16 -8 19 -4z m485 7 c-4 -3 -2 -18 2 -34
6 -21 4 -32 -6 -41 -11 -9 -14 -8 -14 9 0 24 -25 48 -35 32 -3 -5 -3 -15 0
-20 4 -6 1 -9 -7 -8 -9 2 -12 -6 -10 -26 3 -26 1 -28 -13 -16 -9 7 -14 19 -11
27 4 8 1 11 -5 8 -6 -4 -8 -13 -5 -20 2 -7 -2 -21 -10 -32 -8 -10 -13 -13 -12
-8 1 6 -3 20 -10 32 -10 17 -9 22 6 29 9 4 25 8 34 8 10 1 25 11 33 24 9 12
20 20 25 17 4 -3 13 2 20 10 7 8 15 15 18 15 3 0 3 -3 0 -6z m-426 -13 c8 11
9 11 5 -2 -3 -9 0 -23 6 -30 7 -7 2 -5 -10 5 -13 11 -23 24 -22 30 0 6 3 5 6
-3 5 -11 7 -11 15 0z m62 -48 c1 -7 -3 -14 -8 -15 -4 -2 -10 15 -11 37 -3 36
-2 38 7 15 6 -14 12 -31 12 -37z m46 33 c0 -3 -4 -8 -10 -11 -5 -3 -10 -1 -10
4 0 6 5 11 10 11 6 0 10 -2 10 -4z m143 -51 c14 3 16 0 7 -10 -12 -14 -27 -14
-47 -2 -7 5 -18 5 -23 2 -6 -4 -8 3 -6 17 3 13 5 25 5 27 1 3 11 -5 24 -16 12
-11 30 -19 40 -18z m-603 21 c0 -2 -8 -10 -17 -17 -16 -13 -17 -12 -4 4 13 16
21 21 21 13z m497 -10 c-1 -6 -6 -14 -12 -18 -6 -5 -5 -8 3 -8 7 0 10 -5 7
-10 -10 -16 -22 -3 -22 23 0 13 5 24 13 24 7 0 12 -5 11 -11z m-352 -30 c-1
-12 -6 -28 -9 -37 -4 -10 -6 -23 -4 -30 1 -8 -2 -15 -7 -16 -6 -2 -10 0 -10 5
0 15 -17 32 -26 26 -6 -3 -1 12 10 33 21 42 51 54 46 19z m-198 -13 c0 -9 -4
-10 -14 -2 -7 6 -13 12 -13 14 0 1 6 2 13 2 8 0 14 -6 14 -14z m-13 -22 c3 -5
-1 -14 -8 -20 -10 -9 -16 -9 -21 -1 -4 6 -1 9 7 8 7 -2 12 3 11 10 -3 14 3 16
11 3z m-110 -77 c3 -8 2 -12 -4 -9 -6 3 -10 10 -10 16 0 14 7 11 14 -7z m226
-9 c-13 -16 -30 -11 -30 8 0 8 3 8 9 -1 6 -11 10 -10 15 4 3 9 9 14 13 11 3
-4 0 -13 -7 -22z m-932 -10 c-3 -3 -9 2 -12 12 -6 14 -5 15 5 6 7 -7 10 -15 7
-18z m647 6 c3 -5 2 -12 -3 -15 -5 -3 -9 1 -9 9 0 17 3 19 12 6z m-612 -18
c-3 -7 -6 -13 -8 -13 -2 0 -5 6 -8 13 -3 8 1 14 8 14 7 0 11 -6 8 -14z m818
-20 c-8 -15 -10 -15 -11 -2 0 17 10 32 18 25 2 -3 -1 -13 -7 -23z m-528 -35
c-6 -7 -9 -29 -7 -48 2 -24 0 -30 -6 -20 -8 13 -10 13 -10 1 0 -19 -11 -8 -15
16 -2 10 -4 18 -5 18 -1 0 -3 8 -5 18 -2 11 0 16 3 12 4 -4 7 -11 7 -16 0 -11
20 -12 20 -1 0 10 15 32 22 32 3 0 1 -6 -4 -12z m450 -9 c-6 -6 -9 -17 -7 -24
3 -7 0 -16 -7 -21 -8 -5 -11 -2 -6 8 3 9 0 21 -6 28 -9 10 -9 11 0 6 6 -3 14
-2 18 4 3 5 9 10 13 10 3 0 1 -5 -5 -11z m36 -3 c9 -11 9 -16 -1 -22 -7 -4
-10 -4 -6 1 4 4 3 14 -3 22 -6 7 -9 13 -6 13 2 0 10 -6 16 -14z m-618 -19
c-10 -9 -11 -8 -5 6 3 10 9 15 12 12 3 -3 0 -11 -7 -18z m152 -9 c-3 -18 -7
-35 -10 -38 -2 -3 -2 11 0 30 6 41 6 40 11 40 2 0 2 -15 -1 -32z m380 12 c-3
-12 -8 -19 -11 -16 -5 6 5 36 12 36 2 0 2 -9 -1 -20z m-86 -42 c-3 -10 -1 -21
4 -24 5 -3 6 -10 3 -16 -4 -6 -13 0 -21 16 -14 26 -33 27 -33 2 0 -8 -6 -19
-14 -25 -11 -9 -15 -8 -20 4 -3 9 -11 13 -18 10 -7 -4 -2 2 12 13 13 11 27 19
31 16 4 -2 12 2 18 9 17 21 43 17 38 -5z m-122 -37 c-9 -8 -36 -10 -30 -2 2 4
11 8 20 8 8 0 13 -3 10 -6z m-3147 -111 c-5 -62 -9 -73 -34 -95 -33 -28 -34
-28 -68 -15 -25 9 -26 13 -26 93 l0 83 66 2 67 3 -5 -71z m-221 0 c-9 -85 -19
-100 -67 -100 -47 0 -70 26 -70 81 0 54 29 74 114 78 l29 1 -6 -60z m356 51
c19 -8 26 -19 31 -54 4 -24 4 -62 0 -84 -5 -32 -12 -41 -35 -50 -28 -11 -30
-10 -36 17 -10 54 -53 49 -84 -11 -27 -53 -39 -49 -25 9 9 36 17 48 34 50 19
3 35 27 31 48 -6 36 3 66 24 74 29 12 31 12 60 1z m-131 -268 c19 -23 32 -91
20 -106 -5 -7 -12 -36 -16 -65 l-7 -53 28 18 c15 10 43 18 62 18 29 0 38 5 49
28 20 41 7 103 -22 111 -56 14 -95 36 -90 51 9 22 47 18 62 -5 16 -26 30 -25
52 3 10 12 21 19 25 15 11 -10 26 -151 20 -177 -4 -14 -14 -30 -23 -37 -19
-14 -150 -39 -159 -31 -3 3 -17 1 -31 -4 -14 -6 -37 -7 -50 -4 l-24 6 25 19
c14 11 30 20 36 20 12 0 18 21 26 109 l6 64 -37 -6 c-47 -8 -56 -21 -50 -77 2
-25 -1 -58 -8 -75 -7 -16 -11 -35 -9 -42 5 -15 -75 -28 -124 -20 -20 4 -47 16
-60 29 -22 20 -24 29 -21 98 l3 75 33 3 c39 4 40 -4 6 -39 -23 -24 -25 -32
-19 -73 9 -57 49 -97 73 -73 11 11 11 19 3 35 -13 25 -15 89 -2 97 5 3 12 -21
16 -52 9 -79 12 -85 37 -81 29 4 42 54 35 135 -6 61 -6 61 26 76 31 14 60 23
83 26 6 0 18 -7 26 -16z m-42 -69 c0 -21 -18 -54 -30 -54 -11 0 -14 53 -3 63
12 13 33 7 33 -9z m150 -37 c0 -13 -11 -34 -25 -47 l-25 -23 0 26 c0 32 20 67
37 67 7 0 13 -10 13 -23z m-683 -14 c-4 -3 -2 -11 3 -18 7 -8 5 -12 -4 -12 -8
0 -12 7 -11 16 5 22 4 21 12 21 3 0 3 -3 0 -7z m-23 -42 c3 -4 -4 -17 -17 -27
-22 -19 -22 -19 -4 2 9 11 14 24 10 27 -3 4 -4 7 0 7 3 0 8 -4 11 -9z m10497
-198 c13 -16 12 -17 -3 -4 -10 7 -18 15 -18 17 0 8 8 3 21 -13z m-4705 -821
c14 -10 54 -77 54 -91 0 -7 -13 -17 -29 -22 -19 -7 -28 -15 -24 -25 9 -24 -27
-28 -57 -5 -16 11 -43 21 -59 21 -24 0 -32 5 -37 24 -8 32 -1 41 54 76 47 29
77 36 98 22z m67 -199 c9 -53 -15 -202 -38 -236 -22 -34 -62 -56 -106 -59 -32
-3 -34 -1 -42 42 -12 67 1 90 82 139 39 24 71 50 71 57 0 25 -31 28 -76 5 -57
-27 -72 -27 -48 1 25 28 134 99 144 93 4 -2 10 -22 13 -42z m11 -275 c3 -18
13 -114 21 -213 9 -99 20 -218 25 -265 6 -47 10 -88 10 -92 0 -5 -33 -8 -72
-8 -40 0 -90 -5 -111 -11 -22 -6 -41 -9 -43 -7 -5 5 -22 254 -28 396 -4 116
-3 122 15 122 29 0 148 71 155 92 8 28 21 21 28 -14z m60 -640 c14 -111 26
-305 32 -530 l7 -247 -38 -7 c-35 -6 -182 0 -191 9 -2 2 -10 147 -19 323 -8
175 -17 353 -20 395 l-5 76 72 10 c40 5 92 10 115 11 l42 2 5 -42z"/>
<path d="M13801 14723 c7 -12 15 -20 18 -17 3 2 -3 12 -13 22 -17 16 -18 16
-5 -5z"/>
<path d="M13709 14643 c0 -5 -2 -18 -3 -30 -1 -12 1 -20 4 -18 8 5 11 55 4 55
-2 0 -4 -3 -5 -7z"/>
<path d="M14381 13423 c7 -12 15 -20 18 -17 3 2 -3 12 -13 22 -17 16 -18 16
-5 -5z"/>
<path d="M14910 12401 c0 -6 4 -13 10 -16 6 -3 7 1 4 9 -7 18 -14 21 -14 7z"/>
<path d="M14234 14945 c-9 -21 -2 -26 13 -10 8 9 9 16 3 20 -6 3 -13 -1 -16
-10z"/>
<path d="M14242 14904 c-8 -16 -17 -22 -25 -18 -6 4 -4 -2 6 -13 9 -11 15 -22
12 -24 -2 -3 6 -6 18 -6 17 -2 19 0 7 7 -13 8 -13 13 -2 31 9 14 10 19 2 14
-9 -5 -10 -1 -5 14 9 29 1 26 -13 -5z"/>
<path d="M14190 14883 c0 -6 8 -17 18 -24 16 -13 16 -13 2 6 -8 11 -16 22 -17
24 -2 2 -3 0 -3 -6z"/>
<path d="M9736 14433 c-6 -14 -5 -15 5 -6 7 7 10 15 7 18 -3 3 -9 -2 -12 -12z"/>
<path d="M10883 14225 c0 -8 4 -12 9 -9 5 3 6 10 3 15 -9 13 -12 11 -12 -6z"/>
<path d="M13359 13093 c-13 -16 -12 -17 4 -4 9 7 17 15 17 17 0 8 -8 3 -21
-13z"/>
<path d="M12359 13990 c18 -8 21 -13 12 -24 -9 -10 -8 -16 4 -26 12 -10 16
-10 20 1 11 31 -2 53 -31 55 -28 3 -28 3 -5 -6z m31 -36 c0 -8 -5 -12 -10 -9
-6 4 -8 11 -5 16 9 14 15 11 15 -7z"/>
<path d="M12423 13907 c0 -8 6 -14 14 -14 9 0 10 4 2 14 -6 7 -12 13 -14 13
-1 0 -2 -6 -2 -13z"/>
<path d="M12105 12920 c3 -5 8 -10 11 -10 2 0 4 5 4 10 0 6 -5 10 -11 10 -5 0
-7 -4 -4 -10z"/>
<path d="M9738 14013 c-9 -10 -13 -24 -11 -30 7 -19 22 -15 18 5 -1 9 2 23 8
30 15 19 2 14 -15 -5z"/>
<path d="M9748 13938 c-3 -7 0 -26 7 -42 l12 -29 7 28 c5 19 2 33 -7 42 -12
12 -15 12 -19 1z m20 -33 c-3 -3 -9 2 -12 12 -6 14 -5 15 5 6 7 -7 10 -15 7
-18z"/>
<path d="M9703 13853 c-3 -10 -8 -21 -10 -25 -2 -4 1 -9 6 -12 5 -3 11 8 13
24 5 33 1 39 -9 13z"/>
<path d="M11710 13785 c-20 -21 -21 -27 -10 -38 10 -10 11 -9 5 1 -4 8 2 23
16 38 12 13 20 24 17 24 -2 0 -15 -11 -28 -25z"/>
<path d="M11616 13613 c-6 -14 -5 -15 5 -6 7 7 10 15 7 18 -3 3 -9 -2 -12 -12z"/>
<path d="M11555 13110 c3 -5 8 -10 11 -10 2 0 4 5 4 10 0 6 -5 10 -11 10 -5 0
-7 -4 -4 -10z"/>
<path d="M12509 13748 c-6 -19 -6 -39 0 -42 4 -3 8 6 9 20 1 13 0 24 -3 24 -3
0 -5 -1 -6 -2z"/>
<path d="M9920 11096 c0 -2 7 -7 16 -10 8 -3 12 -2 9 4 -6 10 -25 14 -25 6z"/>
<path d="M9923 11065 c0 -8 4 -12 9 -9 5 3 6 10 3 15 -9 13 -12 11 -12 -6z"/>
<path d="M13211 11064 c0 -11 3 -14 6 -6 3 7 2 16 -1 19 -3 4 -6 -2 -5 -13z"/>
<path d="M10046 11033 c-6 -14 -5 -15 5 -6 7 7 10 15 7 18 -3 3 -9 -2 -12 -12z"/>
<path d="M9998 10963 c7 -3 16 -2 19 1 4 3 -2 6 -13 5 -11 0 -14 -3 -6 -6z"/>
<path d="M9925 10829 c-5 -8 -4 -10 3 -5 16 9 15 -7 0 -22 -7 -7 -8 -12 -4
-12 5 0 1 -12 -9 -26 -9 -14 -14 -28 -11 -31 3 -3 1 -15 -5 -27 -10 -20 -9
-20 5 -3 8 11 12 26 9 35 -4 9 -2 13 4 9 5 -3 10 -1 11 6 2 22 7 42 16 55 5 8
4 18 -2 24 -6 6 -12 6 -17 -3z"/>
<path d="M12665 10274 c-218 -23 -664 -161 -885 -275 -120 -61 -250 -159 -323
-242 -31 -35 -54 -67 -51 -69 4 -5 -48 -146 -64 -172 -8 -13 17 3 68 44 52 43
169 114 176 108 2 -3 -1 -28 -8 -57 -17 -74 1 -214 41 -317 28 -71 40 -90 110
-157 43 -43 85 -77 92 -77 8 0 88 -7 179 -15 91 -8 219 -18 286 -21 120 -7
121 -7 174 22 64 35 157 134 197 211 104 198 142 458 83 573 -57 113 -140 187
-180 162 -11 -6 -26 -12 -34 -12 -26 0 -29 -21 -6 -45 28 -30 21 -50 -25 -70
-20 -8 -50 -26 -67 -40 -40 -33 -58 -32 -58 4 0 15 -9 40 -20 54 -11 14 -20
30 -20 37 0 17 96 57 178 75 149 31 309 13 455 -52 152 -67 169 -92 175 -253
7 -203 -28 -329 -128 -450 -48 -58 -35 -55 25 5 96 97 345 418 345 445 0 25
10 50 21 50 5 0 9 -9 9 -19 0 -16 5 -18 35 -11 39 9 65 26 65 44 0 6 -17 20
-38 31 -36 19 -83 87 -70 100 10 10 49 -14 95 -58 32 -31 41 -35 36 -19 -9 35
-181 193 -296 270 -226 154 -401 213 -572 196z m-550 -409 c0 -16 -9 -21 -40
-26 -22 -3 -48 -9 -57 -14 -13 -5 -18 -3 -18 8 0 16 76 58 100 54 8 -1 15 -11
15 -22z m-405 -275 c0 -13 -37 -50 -50 -50 -18 0 -10 29 12 44 26 18 38 20 38
6z m192 -68 c-7 -5 -10 -17 -7 -28 6 -17 6 -18 -5 -1 -12 19 -6 37 13 37 9 0
8 -3 -1 -8z m-11 -57 c3 3 5 -5 5 -16 -1 -13 6 -23 17 -25 9 -1 15 2 11 7 -3
5 0 9 6 9 6 0 8 5 5 10 -3 6 -2 10 3 10 6 0 33 -29 62 -65 57 -74 83 -88 143
-79 84 12 106 24 148 81 37 49 42 53 57 40 10 -8 25 -13 34 -12 10 2 20 -1 24
-6 3 -5 10 -6 16 -3 7 4 8 2 4 -5 -6 -9 -11 -9 -24 0 -10 7 7 -11 36 -39 28
-29 52 -55 52 -59 0 -5 -7 1 -15 11 -8 11 -17 17 -20 14 -3 -2 6 -15 19 -27
18 -17 26 -19 31 -10 6 8 4 10 -6 4 -8 -5 -10 -4 -6 0 4 5 14 10 21 11 36 5
-24 -180 -76 -238 -45 -50 -81 -54 -273 -35 -88 9 -194 19 -235 22 -97 8 -135
20 -158 52 -18 25 -18 25 8 52 25 24 27 32 29 132 2 116 11 161 38 191 18 20
18 20 28 -6 6 -15 14 -24 16 -21z m20 -28 c-10 -9 -11 -8 -5 6 3 10 9 15 12
12 3 -3 0 -11 -7 -18z m544 -57 c2 -25 2 -25 -20 0 -18 20 -18 21 0 14 14 -6
16 -4 10 7 -4 8 -4 11 0 6 5 -4 9 -16 10 -27z"/>
<path d="M11849 9473 c-13 -16 -12 -17 4 -4 9 7 17 15 17 17 0 8 -8 3 -21 -13z"/>
<path d="M9470 7110 c-12 -7 -12 -14 -4 -27 11 -19 120 -77 164 -88 22 -6 21
-4 -9 17 -18 12 -55 42 -82 66 -28 23 -51 42 -52 42 -1 0 -9 -5 -17 -10z"/>
<path d="M11131 7080 c-30 -22 -71 -47 -92 -57 -22 -9 -39 -21 -39 -26 0 -4
-4 -5 -10 -2 -5 3 -10 1 -10 -5 0 -7 6 -10 13 -8 6 3 49 17 95 33 92 30 139
62 129 88 -9 25 -26 20 -86 -23z"/>
<path d="M15193 11865 c-6 -18 1 -28 23 -31 14 -2 14 -1 0 15 -9 10 -13 21 -9
24 3 4 3 7 -1 7 -3 0 -9 -7 -13 -15z"/>
<path d="M8806 11097 c3 -10 9 -15 12 -12 3 3 0 11 -7 18 -10 9 -11 8 -5 -6z"/>
<path d="M6313 9041 c-1 -30 0 -32 8 -13 12 32 18 27 15 -13 -2 -19 -1 -33 3
-30 4 2 7 23 7 46 -1 29 -6 43 -16 44 -11 2 -15 -8 -17 -34z"/>
<path d="M13835 6780 c-3 -5 -1 -18 4 -28 6 -11 8 -22 6 -26 -3 -3 -2 -4 2 -1
3 3 13 -1 21 -8 9 -6 5 2 -7 20 -13 17 -20 36 -17 42 4 6 5 11 2 11 -3 0 -8
-4 -11 -10z"/>
<path d="M11925 5629 c-4 -5 -4 -13 -1 -16 3 -4 6 0 6 8 0 11 2 11 10 -1 6 -9
10 -10 10 -3 0 17 -17 25 -25 12z"/>
<path d="M11957 5608 c-5 -15 16 -43 32 -43 3 0 5 -3 4 -7 -1 -3 4 -5 13 -4
13 2 21 16 9 16 -12 -1 -33 26 -27 34 3 5 0 6 -6 2 -5 -3 -12 -1 -14 6 -3 8
-7 6 -11 -4z"/>
<path d="M12039 5560 c-4 -26 -3 -30 6 -31 6 0 20 -10 33 -21 12 -12 22 -17
22 -12 0 5 5 2 10 -6 5 -8 10 -10 10 -4 0 15 -80 88 -81 74z m46 -40 c10 -11
16 -20 13 -20 -3 0 -13 9 -23 20 -10 11 -16 20 -13 20 3 0 13 -9 23 -20z"/>
<path d="M10563 5515 c0 -8 4 -12 9 -9 5 3 6 10 3 15 -9 13 -12 11 -12 -6z"/>
<path d="M12145 5461 c-3 -5 -2 -12 3 -15 5 -3 9 1 9 9 0 17 -3 19 -12 6z"/>
<path d="M12174 5456 c1 -8 5 -18 8 -22 4 -3 5 1 4 10 -1 8 -5 18 -8 22 -4 3
-5 -1 -4 -10z"/>
<path d="M10505 5441 c-3 -5 -2 -12 3 -15 5 -3 9 1 9 9 0 17 -3 19 -12 6z"/>
<path d="M10267 5412 c-10 -10 -15 -21 -12 -24 3 -3 -5 -13 -17 -24 -12 -10
-18 -14 -15 -7 8 14 -9 28 -17 14 -3 -5 1 -14 8 -21 13 -10 13 -17 0 -52 -8
-22 -14 -43 -14 -46 0 -6 45 51 45 58 1 14 34 63 35 51 0 -8 3 -12 6 -9 3 3 0
15 -7 26 -10 17 -10 23 0 36 19 22 8 20 -12 -2z m-12 -62 c-9 -16 -18 -30 -21
-30 -2 0 2 14 11 30 9 17 18 30 21 30 2 0 -2 -13 -11 -30z"/>
<path d="M10469 5388 c-5 -18 -6 -38 -1 -34 7 8 12 36 6 36 -2 0 -4 -1 -5 -2z"/>
<path d="M10394 5326 c1 -8 5 -18 8 -22 4 -3 5 1 4 10 -1 8 -5 18 -8 22 -4 3
-5 -1 -4 -10z"/>
<path d="M10178 5289 c-10 -5 -18 -7 -18 -3 0 4 -11 -3 -24 -15 -16 -15 -26
-19 -31 -11 -5 8 -10 8 -21 -1 -7 -6 -12 -15 -9 -19 6 -10 -75 -76 -92 -75 -7
0 -18 9 -26 19 -14 19 -15 19 -27 -4 -12 -22 -14 -22 -25 -6 -11 15 -15 13
-33 -18 -20 -33 -34 -39 -59 -23 -7 5 -16 -1 -23 -13 -6 -11 -15 -18 -20 -15
-9 6 -24 -70 -16 -83 3 -5 -1 -18 -10 -28 -14 -18 -15 -18 -9 4 9 33 -5 134
-15 107 -4 -11 -3 -25 2 -32 10 -12 6 -103 -6 -121 -3 -5 3 -17 14 -27 11 -10
17 -22 13 -28 -4 -6 -1 -7 6 -3 9 6 9 12 -3 25 -13 14 -13 20 -3 31 9 10 9 11
0 6 -13 -7 -18 6 -6 17 12 12 34 -15 23 -28 -7 -9 -5 -16 7 -26 16 -12 17 -12
6 2 -7 9 -9 19 -5 23 4 4 8 12 8 17 1 5 2 10 4 12 7 9 6 36 -1 31 -5 -3 -7 -9
-4 -14 3 -5 1 -11 -4 -14 -18 -11 -20 11 -4 34 15 22 17 22 29 5 10 -13 10
-24 3 -39 -9 -19 -9 -19 8 2 15 18 21 20 32 10 12 -11 12 -10 5 2 -5 8 -9 20
-10 25 -1 6 -3 15 -4 20 -5 23 1 56 9 50 5 -3 8 -16 5 -30 -2 -13 0 -27 6 -30
6 -4 8 -10 5 -15 -3 -5 -1 -12 5 -15 8 -5 7 -12 -2 -23 -12 -15 -11 -16 4 -3
10 7 15 18 11 25 -13 21 -11 35 8 52 10 9 19 23 19 29 0 7 7 18 15 25 18 15
20 -1 3 -18 -7 -7 -8 -12 -3 -12 4 0 0 -9 -10 -20 -20 -22 -30 -54 -14 -44 5
3 7 9 4 13 -7 12 30 42 40 34 5 -5 4 -1 -3 9 -8 9 -9 19 -4 22 11 6 27 -22 23
-39 -2 -5 1 -6 6 -2 4 5 8 13 8 18 0 5 5 9 10 8 6 -1 9 -5 7 -11 -1 -5 3 -6 9
-3 7 5 7 11 1 17 -12 12 -4 40 9 32 5 -3 7 -10 3 -15 -3 -5 -1 -8 5 -7 5 2 17
-6 26 -17 l16 -20 -9 20 c-11 26 -10 46 3 43 6 -2 9 -7 7 -11 -1 -5 2 -6 8 -2
8 5 7 11 -1 21 -6 8 -9 27 -6 44 5 24 4 28 -11 24 -14 -5 -14 -4 -2 4 8 6 17
9 21 6 4 -2 9 1 12 8 2 7 2 3 0 -9 -2 -13 1 -23 6 -23 12 0 20 57 9 68 -5 5
-2 9 6 9 8 0 13 -4 10 -8 -2 -4 0 -10 5 -13 5 -3 11 3 14 14 3 11 11 19 19 18
7 -2 12 2 11 7 -1 6 8 12 20 12 20 2 20 1 4 -8 -9 -6 -14 -15 -11 -21 5 -7 2
-8 -6 -3 -9 6 -11 4 -5 -6 8 -12 6 -12 -8 0 -16 13 -17 11 -13 -30 4 -36 4
-38 -3 -14 l-9 30 -2 -30 -2 -30 -8 30 c-6 22 -8 25 -9 9 0 -12 -8 -35 -16
-50 l-15 -29 -1 25 c-1 18 -3 20 -6 7 -3 -10 2 -26 11 -36 13 -14 13 -20 3
-31 -10 -12 -9 -12 6 -1 11 9 14 18 8 25 -5 6 -5 20 0 31 4 11 8 14 10 8 2
-14 5 -29 9 -40 1 -5 2 -12 1 -16 -1 -5 3 -6 9 -2 6 3 7 12 3 18 -4 7 -9 20
-10 31 -3 16 -1 17 12 6 8 -7 13 -16 10 -20 -3 -5 -2 -11 2 -13 5 -3 9 17 10
44 1 37 9 58 27 80 15 17 26 37 26 45 0 16 0 16 -22 3z m-192 -135 c7 -1 18 4
25 12 6 8 15 11 20 8 12 -7 11 -51 -1 -59 -6 -4 -7 -12 -4 -18 4 -7 -2 -4 -12
5 -17 17 -19 17 -40 -9 l-21 -27 -13 37 c-13 35 -14 35 -26 14 -7 -12 -17 -31
-23 -42 -5 -12 -16 -27 -25 -35 -15 -12 -16 -10 -12 13 6 32 -20 60 -30 31
-12 -37 -12 -41 -4 -54 15 -24 -1 -33 -17 -10 -12 17 -18 19 -29 9 -11 -9 -14
-7 -14 13 0 30 28 71 42 62 8 -5 9 -1 5 12 -7 18 -7 18 8 0 11 -14 15 -16 15
-5 0 11 2 11 8 1 6 -9 16 -2 34 23 21 30 27 33 32 19 6 -16 8 -15 22 5 13 18
18 20 31 9 8 -6 21 -13 29 -14z"/>
<path d="M9936 5162 c-3 -5 -2 -19 1 -33 l7 -24 8 25 c7 22 7 21 5 -7 -2 -18
0 -30 5 -27 13 8 9 51 -6 63 -8 7 -17 8 -20 3z"/>
<path d="M10010 5155 c-6 -8 -10 -20 -7 -27 3 -8 6 -5 7 7 l1 20 9 -20 c8 -17
8 -16 7 8 -2 32 -1 31 -17 12z"/>
<path d="M9871 5121 c-14 -19 -18 -32 -11 -36 6 -4 7 -11 4 -17 -4 -7 -2 -8 5
-4 6 4 9 11 6 16 -3 5 4 14 15 20 11 6 20 17 20 25 0 27 -19 25 -39 -4z m26
-3 c-3 -8 -6 -5 -6 6 -1 11 2 17 5 13 3 -3 4 -12 1 -19z"/>
<path d="M9981 5134 c0 -11 3 -14 6 -6 3 7 2 16 -1 19 -3 4 -6 -2 -5 -13z"/>
<path d="M9779 5079 c-5 -10 -9 -24 -9 -31 1 -7 7 1 16 17 14 29 14 30 9 3 -3
-15 0 -30 7 -34 6 -4 8 -3 4 4 -3 6 -2 21 3 34 7 19 6 25 -5 25 -8 0 -19 -8
-25 -18z"/>
<path d="M10339 5273 c-13 -16 -12 -17 4 -4 9 7 17 15 17 17 0 8 -8 3 -21 -13z"/>
<path d="M10312 5255 c4 -4 3 -14 -3 -21 -7 -9 -6 -14 3 -20 7 -4 10 -4 6 1
-4 4 -3 14 3 21 7 9 6 14 -3 20 -7 4 -10 4 -6 -1z"/>
<path d="M10274 5208 c-4 -7 -4 -10 1 -6 4 4 15 2 24 -5 14 -11 14 -10 2 6
-16 20 -18 21 -27 5z"/>
<path d="M10283 5183 c4 -3 1 -13 -6 -22 -11 -14 -10 -14 5 -2 16 12 16 31 1
31 -4 0 -3 -3 0 -7z"/>
<path d="M9633 5038 c-4 -7 -13 -24 -20 -38 -6 -14 -12 -19 -12 -10 -1 13 -2
13 -11 0 -8 -11 -9 -8 -6 12 3 15 0 30 -5 33 -5 4 -9 0 -9 -8 0 -8 -7 -20 -15
-27 -16 -13 -20 -31 -7 -29 4 1 9 0 12 -1 25 -10 43 -5 56 15 9 14 23 22 34
20 13 -3 16 1 13 16 -7 25 -20 32 -30 17z m14 -13 c0 -8 -4 -12 -9 -9 -5 3 -6
10 -3 15 9 13 12 11 12 -6z m-73 -41 c3 -8 2 -12 -4 -9 -6 3 -10 10 -10 16 0
14 7 11 14 -7z"/>
<path d="M9595 5021 c-3 -5 -1 -12 5 -16 5 -3 10 1 10 9 0 18 -6 21 -15 7z"/>
<path d="M8966 5002 c2 -3 -2 -12 -8 -20 -16 -18 -21 -55 -7 -47 6 4 8 13 5
21 -3 7 -1 16 5 19 5 4 9 3 8 -2 -4 -22 3 -32 19 -28 12 2 17 -4 19 -23 1 -18
-1 -21 -8 -11 -7 12 -9 12 -9 -1 -1 -10 -5 -7 -13 8 -7 12 -16 20 -20 16 -4
-4 -2 -13 4 -20 8 -10 6 -12 -10 -9 -14 2 -19 0 -15 -7 5 -7 2 -8 -6 -3 -9 6
-11 4 -5 -6 7 -11 6 -12 -7 -2 -8 7 -18 10 -22 6 -4 -4 -3 5 3 19 7 17 7 29 1
33 -11 7 -11 6 -15 -25 -1 -11 -4 -22 -5 -25 -1 -3 -3 -8 -4 -12 -3 -18 -18
-33 -27 -28 -5 4 -10 -1 -10 -9 -3 -37 -5 -41 -22 -40 -9 1 -15 -2 -12 -6 3
-4 0 -22 -6 -40 -7 -19 -14 -27 -19 -20 -5 8 -10 6 -20 -5 -8 -10 -9 -15 -2
-15 6 0 9 -8 6 -17 -5 -15 -3 -15 11 2 9 11 21 20 26 20 6 0 24 25 40 55 16
30 32 54 36 52 4 -2 10 4 13 13 3 9 9 15 12 13 3 -2 15 6 27 16 12 11 21 16
21 11 0 -4 6 -3 13 2 11 8 48 10 62 3 23 -11 50 5 38 23 -3 4 -11 0 -20 -10
-13 -17 -13 -16 -3 5 6 12 8 28 4 34 -4 7 -3 8 4 4 7 -4 12 -3 12 3 0 17 -18
21 -24 5 -4 -9 -11 -12 -18 -7 -7 4 -17 8 -23 8 -5 0 -10 8 -10 17 0 10 -5 21
-11 26 -6 5 -9 7 -8 4z m66 -84 c-2 -10 -6 -18 -7 -18 -1 0 -5 8 -7 18 -3 11
0 19 7 19 7 0 10 -8 7 -19z m-158 -69 c-15 -16 -30 -29 -33 -29 -2 0 7 13 22
28 15 16 24 32 20 37 -5 4 -2 5 5 1 11 -6 7 -15 -14 -37z m-46 -76 c-27 -47
-28 -49 -28 -37 0 11 38 74 45 74 2 0 -5 -17 -17 -37z"/>
<path d="M9899 4993 c-13 -16 -12 -17 4 -4 16 13 21 21 13 21 -2 0 -10 -8 -17
-17z"/>
<path d="M9069 4985 c0 -6 -2 -22 -4 -37 -2 -15 0 -30 5 -33 5 -3 7 -13 4 -23
-5 -15 -4 -15 6 1 6 9 16 15 22 11 6 -4 8 1 3 16 -4 12 -8 29 -9 36 -3 17 -26
42 -27 29z m18 -57 c2 -17 0 -19 -7 -8 -5 8 -6 18 -4 22 8 12 10 10 11 -14z"/>
<path d="M9488 4963 c-8 -10 -14 -32 -14 -49 1 -25 -3 -31 -17 -28 -11 2 -15
-1 -11 -8 5 -7 2 -8 -6 -3 -8 5 -11 4 -7 -1 3 -6 -5 -10 -18 -10 -21 0 -22 3
-13 21 16 31 21 33 13 5 -7 -22 -6 -23 8 -11 9 7 15 17 12 21 -3 5 0 12 6 16
7 4 9 3 5 -4 -3 -6 -1 -14 5 -17 7 -5 10 -1 7 10 -5 27 -33 26 -59 -1 -12 -13
-19 -24 -15 -24 5 0 3 -7 -4 -15 -7 -8 -16 -12 -21 -9 -5 3 -9 -3 -10 -13 0
-14 -2 -14 -9 5 -5 12 -13 22 -16 22 -4 0 -4 -3 -1 -7 4 -3 1 -13 -5 -22 -7
-9 -8 -13 -3 -8 4 4 16 0 26 -9 11 -10 19 -12 23 -5 4 6 13 8 20 5 7 -3 16 2
19 10 4 9 15 13 26 11 11 -2 20 -1 18 3 -1 4 3 8 8 10 6 2 18 11 28 19 9 9 17
13 17 8 0 -4 6 -2 14 4 17 14 17 49 1 74 -11 16 -13 16 -27 0z m11 -10 c-3
-20 2 -27 11 -13 7 11 8 7 6 -14 -3 -29 -33 -47 -33 -20 0 7 4 11 9 8 4 -3 8
-1 8 5 0 5 -5 13 -10 16 -6 4 -8 11 -5 16 7 11 15 12 14 2z m-101 -110 c-6 -7
-13 -11 -16 -8 -3 3 -12 -1 -21 -7 -12 -10 -12 -7 2 8 9 11 24 21 32 21 11 0
12 -4 3 -14z"/>
<path d="M8919 4963 c0 -4 -3 -21 -5 -37 -4 -24 -3 -27 9 -18 8 7 18 8 23 4 4
-4 2 1 -5 10 -7 9 -10 22 -7 27 4 5 2 12 -4 16 -5 3 -10 3 -11 -2z"/>
<path d="M9156 4934 c1 -13 -3 -27 -8 -31 -6 -3 -8 -1 -4 5 3 6 2 13 -3 16
-22 14 -21 -17 0 -32 42 -29 54 -24 50 18 -2 13 0 13 8 1 5 -8 7 -20 4 -28 -3
-7 -1 -13 4 -13 16 0 11 34 -9 59 -25 33 -46 35 -42 5z m16 -46 c-6 -6 -12 -5
-17 3 -5 8 -4 10 3 5 8 -5 12 2 13 21 2 25 2 26 6 4 3 -13 0 -28 -5 -33z"/>
<path d="M9785 4941 c-3 -5 -2 -12 3 -15 5 -3 9 1 9 9 0 17 -3 19 -12 6z"/>
<path d="M9266 4871 c-3 -5 1 -11 9 -14 9 -4 12 -1 8 9 -6 16 -10 17 -17 5z"/>
<path d="M9639 4868 c-5 -18 -6 -38 -1 -34 7 8 12 36 6 36 -2 0 -4 -1 -5 -2z"/>
<path d="M9071 4787 c-13 -21 -12 -21 5 -5 10 10 16 20 13 22 -3 3 -11 -5 -18
-17z"/>
<path d="M8741 4776 c-14 -15 -19 -26 -12 -31 8 -4 6 -16 -5 -38 -12 -25 -12
-28 0 -14 11 14 15 15 20 5 3 -7 4 -3 2 9 -2 12 2 28 10 34 10 8 11 15 4 24
-7 8 -5 12 5 12 8 0 12 -4 9 -8 -2 -4 0 -10 6 -14 15 -9 12 21 -3 34 -11 8
-19 5 -36 -13z"/>
<path d="M9035 4771 c-3 -5 -2 -12 3 -15 5 -3 9 1 9 9 0 17 -3 19 -12 6z"/>
<path d="M9013 4745 c0 -8 4 -12 9 -9 5 3 6 10 3 15 -9 13 -12 11 -12 -6z"/>
<path d="M9493 4745 c0 -8 4 -12 9 -9 5 3 6 10 3 15 -9 13 -12 11 -12 -6z"/>
<path d="M8959 4748 c-5 -18 -6 -38 -1 -34 7 8 12 36 6 36 -2 0 -4 -1 -5 -2z"/>
<path d="M9467 4725 c-4 -8 -3 -16 1 -19 4 -3 9 4 9 15 2 23 -3 25 -10 4z"/>
<path d="M9293 4723 c4 -3 1 -13 -6 -22 -11 -14 -10 -14 5 -2 16 12 16 31 1
31 -4 0 -3 -3 0 -7z"/>
<path d="M8679 4698 c0 -2 -2 -11 -4 -21 -3 -15 -1 -16 11 -6 7 6 11 15 8 20
-5 9 -13 12 -15 7z"/>
<path d="M9385 4691 c-3 -5 -2 -12 3 -15 5 -3 9 1 9 9 0 17 -3 19 -12 6z"/>
<path d="M8889 4668 c-5 -18 -6 -38 -1 -34 7 8 12 36 6 36 -2 0 -4 -1 -5 -2z"/>
<path d="M8596 4615 c-3 -8 -10 -14 -15 -13 -5 2 -17 -6 -26 -17 -9 -11 -14
-14 -10 -8 3 7 2 20 -3 29 -8 14 -12 11 -31 -19 -11 -19 -21 -38 -21 -43 0 -5
5 -2 10 7 6 11 20 16 39 14 17 -1 30 0 29 4 0 3 0 13 1 21 1 13 2 13 11 0 9
-13 10 -13 10 0 0 13 1 13 10 0 8 -12 10 -9 10 13 0 30 -5 35 -14 12z m-63
-30 c-3 -9 -8 -14 -10 -11 -3 3 -2 9 2 15 9 16 15 13 8 -4z"/>
<path d="M8345 4526 c0 -40 2 -44 13 -29 9 13 12 14 12 2 0 -12 2 -12 10 1 5
8 14 15 19 15 6 0 17 9 26 20 l15 20 -6 -20 -7 -20 16 20 c9 11 16 25 17 30 0
6 -5 3 -10 -5 -8 -12 -10 -12 -10 -1 0 11 -3 11 -15 1 -8 -7 -15 -9 -15 -5 0
5 -8 1 -19 -9 -17 -16 -19 -15 -33 5 -13 20 -14 19 -13 -25z m62 2 c-3 -8 -6
-5 -6 6 -1 11 2 17 5 13 3 -3 4 -12 1 -19z m-23 -10 c-3 -4 -11 -5 -19 -1 -21
7 -19 12 4 10 11 0 18 -5 15 -9z"/>
<path d="M8815 4561 c-3 -5 -2 -12 3 -15 5 -3 9 1 9 9 0 17 -3 19 -12 6z"/>
<path d="M8093 4533 c0 -9 4 -10 14 -2 7 6 13 12 13 14 0 1 -6 2 -13 2 -8 0
-14 -6 -14 -14z"/>
<path d="M8230 4514 c0 -8 5 -12 10 -9 6 4 8 11 5 16 -9 14 -15 11 -15 -7z"/>
<path d="M8280 4520 c0 -5 5 -10 11 -10 5 0 7 5 4 10 -3 6 -8 10 -11 10 -2 0
-4 -4 -4 -10z"/>
<path d="M8510 4436 c0 -2 8 -10 18 -17 15 -13 16 -12 3 4 -13 16 -21 21 -21
13z"/>
<path d="M9670 4960 c-6 -11 -8 -20 -6 -20 3 0 10 9 16 20 6 11 8 20 6 20 -3
0 -10 -9 -16 -20z"/>
<path d="M9505 4851 c-3 -5 -2 -12 3 -15 5 -3 9 1 9 9 0 17 -3 19 -12 6z"/>
<path d="M9403 4795 c-3 -9 -3 -18 -1 -21 3 -3 8 4 11 16 6 23 -1 27 -10 5z"/>
<path d="M9305 4800 c10 -11 20 -20 23 -20 3 0 -3 9 -13 20 -10 11 -20 20 -23
20 -3 0 3 -9 13 -20z"/>
<path d="M8861 4763 c-9 -19 -9 -29 -1 -37 8 -8 9 -6 4 8 -5 13 -4 17 4 12 6
-3 14 -1 18 5 5 8 3 9 -6 4 -9 -5 -10 -2 -5 14 9 30 1 26 -14 -6z"/>
<path d="M8436 4483 c-6 -14 -5 -15 5 -6 7 7 10 15 7 18 -3 3 -9 -2 -12 -12z"/>
<path d="M5147 4358 c-7 -52 3 -78 28 -78 16 0 21 14 30 72 6 42 5 46 -17 51
-12 4 -26 7 -29 7 -3 0 -9 -23 -12 -52z"/>
<path d="M4928 4380 c-26 -16 -34 -71 -12 -87 30 -22 52 -16 62 20 23 73 22
77 -6 77 -15 0 -35 -5 -44 -10z"/>
<path d="M5310 4358 c0 -33 23 -88 36 -88 21 0 26 19 19 66 -5 38 -9 44 -31
44 -18 0 -24 -5 -24 -22z"/>
<path d="M10430 1681 c0 -5 9 -7 20 -4 11 3 20 7 20 9 0 2 -9 4 -20 4 -11 0
-20 -4 -20 -9z"/>
<path d="M11618 17782 c-48 -42 -85 -78 -83 -80 2 -2 16 3 32 12 31 16 163
146 148 146 -6 -1 -49 -35 -97 -78z"/>
<path d="M13236 7132 c-2 -4 -1 -14 4 -22 7 -11 9 -9 7 8 -1 24 -3 26 -11 14z"/>
<path d="M13650 7056 c0 -3 9 -10 20 -16 11 -6 20 -8 20 -6 0 3 -9 10 -20 16
-11 6 -20 8 -20 6z"/>
<path d="M13700 7026 c0 -3 9 -10 20 -16 11 -6 20 -8 20 -6 0 3 -9 10 -20 16
-11 6 -20 8 -20 6z"/>
<path d="M13549 6973 c-13 -16 -12 -17 4 -4 9 7 17 15 17 17 0 8 -8 3 -21 -13z"/>
<path d="M13552 6955 c-19 -10 -20 -14 -8 -18 9 -4 16 -1 16 6 0 8 4 7 10 -3
7 -12 9 -10 7 8 0 12 -1 22 -2 21 0 -1 -10 -7 -23 -14z"/>
<path d="M13700 6956 c0 -2 9 -6 20 -9 11 -3 18 -1 14 4 -5 9 -34 13 -34 5z"/>
<path d="M13765 6919 c-5 -8 -4 -10 3 -5 7 4 12 3 12 -2 0 -19 -14 -21 -34 -5
-13 11 -16 12 -9 3 9 -12 8 -21 -3 -40 l-15 -25 6 28 c7 37 -1 34 -14 -5 -6
-17 -8 -28 -4 -25 3 4 15 -1 25 -10 21 -19 45 -25 52 -14 9 14 15 61 8 60 -19
-3 -23 3 -12 16 9 11 10 19 3 26 -8 8 -13 7 -18 -2z m18 -79 c-5 -18 -18 -21
-40 -7 -9 6 -10 14 -1 32 10 23 13 24 29 10 9 -9 15 -24 12 -35z"/>
<path d="M13747 6857 c-9 -23 8 -30 24 -10 8 9 9 14 2 10 -6 -4 -13 -2 -15 5
-3 8 -7 6 -11 -5z"/>
<path d="M13966 6785 c-3 -9 0 -12 9 -9 7 3 23 -4 34 -15 12 -12 21 -19 21
-15 0 3 35 -19 78 -49 91 -63 102 -70 102 -64 0 3 -54 41 -119 86 -88 59 -120
77 -125 66z"/>
<path d="M14290 6576 c0 -2 8 -10 18 -17 15 -13 16 -12 3 4 -13 16 -21 21 -21
13z"/>
<path d="M14085 6530 c10 -11 20 -20 23 -20 3 0 -3 9 -13 20 -10 11 -20 20
-23 20 -3 0 3 -9 13 -20z"/>
<path d="M14186 6511 c-13 -14 -14 -24 -6 -45 5 -15 14 -25 19 -21 6 3 15 -3
21 -12 9 -14 10 -15 7 -2 -3 9 0 22 6 29 9 10 9 11 0 6 -18 -10 -45 34 -31 51
16 20 3 15 -16 -6z m17 -37 c14 -17 15 -21 2 -21 -8 0 -15 4 -15 8 0 4 -3 16
-7 26 -3 10 -4 16 -2 13 2 -3 12 -14 22 -26z"/>
<path d="M14351 6318 c-1 -21 15 -32 25 -17 4 7 3 9 -4 5 -6 -3 -13 2 -15 11
-4 16 -5 16 -6 1z"/>
<path d="M14910 5898 c0 -6 3 -8 7 -5 3 4 13 1 22 -6 14 -11 14 -10 2 6 -15
20 -31 22 -31 5z"/>
<path d="M15268 5788 c8 -9 11 -21 8 -27 -7 -11 20 -8 31 4 5 4 2 5 -6 0 -11
-6 -13 -4 -7 11 4 10 4 15 0 11 -4 -4 -14 -1 -23 6 -14 10 -14 10 -3 -5z"/>
<path d="M15830 4730 c-11 -22 -18 -40 -15 -40 2 0 14 18 25 40 11 22 18 40
15 40 -2 0 -14 -18 -25 -40z"/>
</g>
</svg>
